<svg xmlns="http://www.w3.org/2000/svg" width="32" height="32" viewBox="0 0 8.467 8.467"><g transform="translate(-101.87 -433.35)"><path fill="#87d4f6" d="m 107.70195,436.91495 h 0.71107 v 3.34036 h -0.71107 z"/><g transform="translate(332.728 161.517)"><path d="m 397.65234,550.00586 c -0.23627,-0.004 -0.47276,5.1e-4 -0.70898,0.0156 -0.0189,0.004 -0.033,0.008 -0.0508,0.0156 -0.3224,0.0752 -0.54924,0.27883 -0.70117,0.48047 -0.15194,0.20182 -0.24466,0.41881 -0.31836,0.59765 -0.1304,0.31711 -0.13093,0.6042 -0.13282,0.86329 -0.002,0.25889 0.0156,0.47265 0.0156,0.47265 0.0227,0.26003 0.24075,0.45896 0.50195,0.45703 h 0.0859 c -0.0348,0.69014 -0.24647,4.85788 -0.47656,6.99805 -10e-4,0.0113 -0.14375,0.31457 -0.31836,0.53125 -0.0885,0.10975 -0.11059,0.1242 -0.17578,0.19141 -0.52279,0.0221 -1.05822,0.0903 -1.56641,0.14257 -0.42924,0.0439 -0.73323,0.32254 -0.92969,0.61133 -0.19653,0.28876 -0.30708,0.61408 -0.33203,0.94531 -0.0337,0.4564 0.16878,0.76742 0.35547,1.03907 -0.15873,0.1112 -0.30348,0.24272 -0.42969,0.39258 -0.25852,0.30689 -0.44837,0.68745 -0.45703,1.12304 -0.0113,0.58432 0.3461,0.92981 0.62695,1.22461 0.0528,0.0554 0.0546,0.0469 0.10547,0.0957 -0.0947,0.0811 -0.19445,0.15585 -0.27539,0.25196 -0.25852,0.3069 -0.44837,0.69331 -0.45703,1.1289 -0.0113,0.58432 0.3461,0.92981 0.62695,1.22461 0.13112,0.13765 0.15933,0.14711 0.26172,0.23438 -0.008,0.0111 -0.0178,0.0221 -0.0254,0.0332 -0.19653,0.28876 -0.30708,0.61216 -0.33203,0.94336 -0.0514,0.71017 0.2735,1.45611 0.98828,1.77344 0.18843,0.0837 0.38142,0.12757 0.57422,0.15625 -0.0305,0.21006 -0.045,0.23909 -0.0723,0.53516 -0.0616,0.66995 -0.10474,1.45377 0.10351,2.09765 0.18255,0.56353 0.53313,1.16978 1.16016,1.48242 1.72932,0.86192 3.89099,0.73337 5.625,0.0449 0.31105,-0.1236 0.69762,-0.30081 1.03906,-0.56836 0.34129,-0.26722 0.68933,-0.69987 0.61328,-1.24805 -0.0685,-0.49531 -0.10841,-1.04432 -0.13672,-1.61524 0.11208,0.0381 0.10333,0.0387 0.23243,0.0801 0.53291,0.17084 1.16324,0.35389 1.69921,0.38477 0.54641,0.0302 1.20166,-0.0803 1.76368,-0.19141 0.31563,-0.0624 0.38345,-0.0844 0.56835,-0.1289 0.0227,0.29377 0.0442,0.58763 0.0664,0.88085 a 0.50004998,0.50004998 0 0 0 0.52344,0.46485 l 2.21484,-0.11133 a 0.50004998,0.50004998 0 1 0 -0.0508,-0.99609 l -1.69141,0.082 c -0.32352,-4.22759 -0.64646,-8.43408 -0.0879,-11.86328 l 1.875,-0.10352 a 0.50282623,0.50282623 0 1 0 -0.0586,-1.0039 l -2.33984,0.13281 a 0.50004998,0.50004998 0 0 0 -0.4668,0.41406 c -0.0461,0.25183 -0.0747,0.51516 -0.11133,0.77344 l -0.73047,0.01 c -0.16063,-0.23508 -0.70251,-1.04264 -1.12109,-1.57226 -0.6802,-0.8606 -1.94649,-2.24895 -2.08984,-2.40625 l -0.16211,-2.54688 a 0.50004998,0.50004998 0 0 0 -0.31836,-0.43554 c 0,0 -0.22223,-0.0911 -0.50196,-0.16211 -0.27968,-0.0707 -0.60429,-0.17135 -1.00976,-0.0391 -0.1508,0.0495 -0.27162,0.12314 -0.38281,0.20313 -0.0211,-0.79678 -0.0318,-1.33688 -0.0274,-1.63477 h 0.11524 c 0.24113,0.002 0.44878,-0.16919 0.49414,-0.40625 0,0 0.0382,-0.20682 0.0586,-0.45703 0.0189,-0.24982 0.0466,-0.52778 -0.0664,-0.85547 -0.0555,-0.161 -0.12805,-0.37003 -0.26562,-0.57617 -0.13758,-0.20598 -0.37983,-0.45257 -0.74414,-0.48047 -0.74823,-0.0383 -1.46305,-0.11616 -2.17188,-0.12695 z" color="#000" font-family="sans-serif" font-weight="400" overflow="visible" transform="translate(-332.728 127.016) scale(.26458)" style="line-height:normal;font-variant-ligatures:normal;font-variant-position:normal;font-variant-caps:normal;font-variant-numeric:normal;font-variant-alternates:normal;font-feature-settings:normal;text-indent:0;text-align:start;text-decoration-line:none;text-decoration-style:solid;text-decoration-color:#000;text-transform:none;text-orientation:mixed;shape-padding:0;isolation:auto;mix-blend-mode:normal"/><path fill="#996880" d="m 397.62109,551 c 0.68908,-0.0421 1.52667,0.10733 2.08594,0.12695 0.001,0.004 0.007,0.009 0.0274,0.041 0.0499,0.0748 0.10969,0.21606 0.15429,0.3457 0.002,0.008 0.0232,0.21638 0.0156,0.39844 h -3.15235 c 0.0113,-0.18633 0.0347,-0.39789 0.0449,-0.41992 0.0571,-0.13871 0.0954,-0.31056 0.1914,-0.36914 0.18067,-0.0723 0.39828,-0.10873 0.63281,-0.12305 z" color="#000" font-family="sans-serif" font-weight="400" overflow="visible" transform="translate(-332.728 127.016) scale(.26458)" style="line-height:normal;font-variant-ligatures:normal;font-variant-position:normal;font-variant-caps:normal;font-variant-numeric:normal;font-variant-alternates:normal;font-feature-settings:normal;text-indent:0;text-align:start;text-decoration-line:none;text-decoration-style:solid;text-decoration-color:#000;text-transform:none;text-orientation:mixed;shape-padding:0;isolation:auto;mix-blend-mode:normal"/><path fill="#d6e5e5" d="m 397.34375,552.9082 h 1.89258 c -0.007,0.43197 -0.0139,1.29664 0.0488,2.53321 0.0261,0.52771 0.0684,1.0842 0.12304,1.64257 l -2.29101,-0.27734 c 0.12657,-1.92347 0.20755,-3.50912 0.22656,-3.89844 z" color="#000" font-family="sans-serif" font-weight="400" overflow="visible" transform="translate(-332.728 127.016) scale(.26458)" style="line-height:normal;font-variant-ligatures:normal;font-variant-position:normal;font-variant-caps:normal;font-variant-numeric:normal;font-variant-alternates:normal;font-feature-settings:normal;text-indent:0;text-align:start;text-decoration-line:none;text-decoration-style:solid;text-decoration-color:#000;text-transform:none;text-orientation:mixed;shape-padding:0;isolation:auto;mix-blend-mode:normal"/><path fill="#fbb738" d="m 400.96094,555.29297 c -0.0302,0.0113 0.22907,0.003 0.4414,0.0586 0.0522,0.0113 0.0504,0.0161 0.0957,0.0312 l 0.14843,2.37696 a 0.50004998,0.50004998 0 0 0 0.13282,0.30273 c 0,0 1.50213,1.65132 2.16211,2.48633 0.4199,0.53132 1.24023,1.73437 1.24023,1.73437 a 0.50004998,0.50004998 0 0 0 0.42188,0.22266 l 0.8496,-0.01 c -0.27624,2.88418 -0.0725,6.09239 0.17383,9.31836 -0.15298,0.0377 -0.30305,0.0791 -0.68359,0.1543 -0.52947,0.10469 -1.18394,0.19701 -1.52148,0.17773 -0.32693,-0.0189 -0.94592,-0.17921 -1.44727,-0.33984 -0.31748,-0.10172 -0.41018,-0.14135 -0.57031,-0.20117 -0.0412,-2.8181 0.22125,-6.22694 0.27539,-9.33008 0.0113,-0.70212 -0.47931,-1.15645 -0.8711,-1.49805 -0.39174,-0.34167 -0.72544,-0.63815 -0.82031,-0.8789 -0.36727,-0.93163 -0.5701,-2.49696 -0.66797,-3.9375 0.0528,-0.0754 0.0799,-0.12087 0.18946,-0.25391 0.17461,-0.21203 0.43956,-0.41024 0.45117,-0.41406 z" color="#000" font-family="sans-serif" font-weight="400" overflow="visible" transform="translate(-332.728 127.016) scale(.26458)" style="line-height:normal;font-variant-ligatures:normal;font-variant-position:normal;font-variant-caps:normal;font-variant-numeric:normal;font-variant-alternates:normal;font-feature-settings:normal;text-indent:0;text-align:start;text-decoration-line:none;text-decoration-style:solid;text-decoration-color:#000;text-transform:none;text-orientation:mixed;shape-padding:0;isolation:auto;mix-blend-mode:normal"/><path fill="#ed7c4f" d="m 397.05273,557.80469 2.47852,0.30469 c 0.11688,0.79006 0.27887,1.54276 0.52148,2.1582 0.24038,0.61005 0.74309,0.95284 1.09961,1.26367 0.35641,0.31068 0.52715,0.51813 0.52344,0.73047 -0.0718,4.11946 -0.5474,8.85254 -0.0879,12.17187 0.008,0.065 -0.0266,0.16132 -0.23633,0.32422 -0.20787,0.1629 -0.53272,0.31707 -0.79687,0.42188 -1.49964,0.59531 -3.4299,0.67478 -4.81446,-0.0156 -0.26418,-0.1319 -0.52416,-0.50858 -0.64843,-0.89258 -0.10621,-0.32768 -0.11529,-1.073 -0.0586,-1.6914 0.0327,-0.35667 0.0563,-0.44077 0.0898,-0.64649 0.0719,-0.009 0.14854,-0.006 0.21875,-0.0156 0.28513,-0.04 0.5625,-0.0877 0.80859,-0.12305 0.0379,0.0978 0.0354,0.1078 0.0918,0.23242 0.14513,0.32051 0.30004,0.70258 0.70898,0.95899 0.63852,0.40025 1.44521,0.43591 2.11914,0.14844 0.36322,-0.15497 0.73503,-0.39939 1.04102,-0.72461 0.30614,-0.32542 0.56724,-0.76424 0.52344,-1.28321 -0.11982,-1.4208 0.21601,-3.56177 0.0879,-5.51367 -0.0627,-0.9558 -0.64334,-1.85604 -1.46875,-2.32617 -0.44138,-0.25172 -0.86016,-0.12751 -1.1211,-0.0742 -0.20125,0.0414 -0.34512,0.11507 -0.47656,0.18359 -0.0403,-0.0455 -0.09,-0.0841 -0.13672,-0.125 0.0114,-0.0233 0.0122,-0.0188 0.0234,-0.043 0.15723,-0.33789 0.35179,-0.74851 0.24219,-1.25391 -0.0529,-0.24491 -0.16069,-0.47614 -0.31641,-0.69531 -0.15572,-0.21922 -0.35705,-0.44625 -0.70117,-0.53711 v -0.002 c -0.0571,-0.0151 -0.12104,-0.0154 -0.17969,-0.0273 0.13049,-0.19593 0.24439,-0.41463 0.27539,-0.70312 0.0651,-0.60592 0.12988,-1.38203 0.18945,-2.20508 z" color="#000" font-family="sans-serif" font-weight="400" overflow="visible" transform="translate(-332.728 127.016) scale(.26458)" style="line-height:normal;font-variant-ligatures:normal;font-variant-position:normal;font-variant-caps:normal;font-variant-numeric:normal;font-variant-alternates:normal;font-feature-settings:normal;text-indent:0;text-align:start;text-decoration-line:none;text-decoration-style:solid;text-decoration-color:#000;text-transform:none;text-orientation:mixed;shape-padding:0;isolation:auto;mix-blend-mode:normal"/><path fill="#fbb738" d="M396.02148 561.64258c.19181.009.35877.0306.49414.0664-.0393-.0113.0553.0373.13282.14649.0775.10923.14264.26305.15625.32617.008.0412-.049.36651-.16992.62695-.0452.0973-.0533.0999-.0937.17383-.89828.004-1.8039-.11829-2.66797.0332-.0403-.0525-.045-.0488-.0879-.11132-.15572-.22677-.24225-.52849-.24414-.50196.008-.12283.0714-.32403.1621-.45703.0907-.13304.18323-.17509.20704-.17773.74758-.0762 1.53592-.15239 2.11132-.125zM395.05469 563.95508c.52666.0155 1.12739.0512 1.76367.0273-.002.00008.0639.0143.16406.1836.10016.16932.17163.44025.17578.58984.00012.004-.13146.34518-.32422.59766-.14033.1838-.21382.25376-.27929.32226-.95835.006-1.92601-.13913-2.8418.0644-.0666-.0544-.17679-.13905-.34961-.32031-.21921-.23017-.35314-.54764-.35351-.51562.003-.13493.0767-.33108.2207-.50196.144-.17083.34963-.304.50976-.35351.33531-.10451.78779-.1092 1.31446-.0937z" color="#000" font-family="sans-serif" font-weight="400" overflow="visible" transform="translate(-332.728 127.016) scale(.26458)" style="line-height:normal;font-variant-ligatures:normal;font-variant-position:normal;font-variant-caps:normal;font-variant-numeric:normal;font-variant-alternates:normal;font-feature-settings:normal;text-indent:0;text-align:start;text-decoration-line:none;text-decoration-style:solid;text-decoration-color:#000;text-transform:none;text-orientation:mixed;shape-padding:0;isolation:auto;mix-blend-mode:normal"/><path fill="#fad741" d="m 398.75977,564.1582 c 0.49217,0.28044 0.92446,0.96232 0.96093,1.51953 0.11679,1.7819 -0.22074,3.89291 -0.082,5.53711 0.0113,0.13229 -0.0649,0.3107 -0.25195,0.50977 -0.18747,0.19918 -0.46907,0.38473 -0.70703,0.48633 -0.34432,0.14702 -0.89759,0.11557 -1.19727,-0.0723 -0.007,-0.004 -0.19454,-0.24149 -0.3125,-0.48437 0.12842,-0.0598 0.24055,-0.1443 0.32031,-0.23828 0.15383,-0.18142 0.23174,-0.38458 0.28125,-0.58399 0.099,-0.39885 0.0912,-0.80662 0.0137,-1.16601 v -0.008 c -0.0529,-0.24491 -0.16069,-0.47422 -0.31641,-0.69336 -0.0151,-0.0213 -0.0386,-0.0394 -0.0547,-0.0605 0.0862,-0.0961 0.10738,-0.10668 0.2168,-0.25 0.24189,-0.31673 0.54039,-0.68481 0.52539,-1.23242 -0.0113,-0.35906 -0.11023,-0.73216 -0.31055,-1.07032 -0.0685,-0.11573 -0.16206,-0.22842 -0.26758,-0.33203 0.0261,-0.0326 0.0262,-0.0258 0.0527,-0.0606 0.24189,-0.31672 0.54039,-0.6848 0.52539,-1.23242 -0.004,-0.14144 -0.034,-0.28492 -0.0664,-0.42773 0.10767,-0.0543 0.24326,-0.11168 0.24219,-0.11133 0.24416,-0.0499 0.42089,-0.0331 0.42774,-0.0293 z" color="#000" font-family="sans-serif" font-weight="400" overflow="visible" transform="translate(-332.728 127.016) scale(.26458)" style="line-height:normal;font-variant-ligatures:normal;font-variant-position:normal;font-variant-caps:normal;font-variant-numeric:normal;font-variant-alternates:normal;font-feature-settings:normal;text-indent:0;text-align:start;text-decoration-line:none;text-decoration-style:solid;text-decoration-color:#000;text-transform:none;text-orientation:mixed;shape-padding:0;isolation:auto;mix-blend-mode:normal"/><path fill="#fbb738" d="M395.05469 566.64844c.52666.0154 1.12739.0511 1.76367.0273-.002.00008.0639.0143.16406.1836.10016.16932.17163.4422.17578.59179.00012.004-.13146.34519-.32422.59766-.15085.19759-.24081.28761-.29882.34765-.84596-.15829-1.82815-.0261-2.72852.0664-.0182.002-.0331.009-.0508.0117-.0428-.0344-.19859-.15592-.39258-.35938-.21921-.23017-.35314-.54959-.35351-.51757.003-.13493.0767-.33108.2207-.50196.144-.17083.34963-.30362.50976-.35351.33531-.10451.78779-.1092 1.31446-.0937zM396.02148 569.33398c.19181.009.35877.0306.49414.0664-.0393-.0113.0553.0373.13282.14649.0775.10922.14264.2611.15625.32421.0404.18709.0425.52165-.008.72461-.0227.0884-.0465.12917-.0586.14844-.51556-.003-1.0386.11405-1.53516.18359-.52036.0729-.98478.0712-1.26367-.0527-.17386-.0771-.41722-.5216-.39843-.78125.008-.12283.0714-.32399.1621-.45703.0907-.13304.18323-.17509.20704-.17774.74758-.0762 1.53592-.15239 2.11132-.125z" color="#000" font-family="sans-serif" font-weight="400" overflow="visible" transform="translate(-332.728 127.016) scale(.26458)" style="line-height:normal;font-variant-ligatures:normal;font-variant-position:normal;font-variant-caps:normal;font-variant-numeric:normal;font-variant-alternates:normal;font-feature-settings:normal;text-indent:0;text-align:start;text-decoration-line:none;text-decoration-style:solid;text-decoration-color:#000;text-transform:none;text-orientation:mixed;shape-padding:0;isolation:auto;mix-blend-mode:normal"/><path d="M-226.3418 276.77539a.13230489.13230489 0 0 0-.0605.23828c0 0 .0597.0462.13672.0977.077.0515.16707.10841.25976.14062.0854.0297.17905.0383.26172.0449.0827.007.15039.008.15039.008a.13230489.13230489 0 1 0 .006-.26367c0 0-.0609-.002-.13477-.008-.0739-.006-.16463-.0199-.19726-.0312-.0399-.0139-.12956-.0648-.19922-.11133-.0697-.0466-.12305-.0879-.12305-.0879a.13230489.13230489 0 0 0-.0996-.0273zM-224.6582 275.58984a.06615245.06615245 0 0 0-.0234.01l-.11133.0664a.06616441.06616441 0 1 0 .0684.11328l.11133-.0664a.06615245.06615245 0 0 0-.0449-.12305zM-224.55078 275.79102a.06615245.06615245 0 0 0-.0293.01l-.23047.11914a.06640735.06640735 0 1 0 .0625.11719l.22852-.11914a.06615245.06615245 0 0 0-.0312-.12695zM-224.54688 276.07227a.06615245.06615245 0 0 0-.0293.008l-.23047.12109a.06640735.06640735 0 1 0 .0625.11719l.22852-.12109a.06615245.06615245 0 0 0-.0313-.125zM-224.5625 276.33398a.06615245.06615245 0 0 0-.0215.008l-.23047.11914a.06615245.06615245 0 1 0 .0605.11718l.23047-.11914a.06615245.06615245 0 0 0-.0391-.125zM-224.55664 276.61523a.06615245.06615245 0 0 0-.0234.008l-.23047.11914a.06640735.06640735 0 1 0 .0625.11719l.22852-.11915a.06615245.06615245 0 0 0-.0371-.125zM-224.51758 276.84961a.06615245.06615245 0 0 0-.0293.008l-.23046.1211a.06640294.06640294 0 1 0 .0625.11718l.22851-.12109a.06615245.06615245 0 0 0-.0312-.125zM-224.51953 277.13086a.06615245.06615245 0 0 0-.0234.008l-.23047.1211a.06640294.06640294 0 1 0 .0625.11718l.22852-.12109a.06615245.06615245 0 0 0-.0371-.125zM-224.53516 277.39258a.06615245.06615245 0 0 0-.0156.008l-.23047.11914a.06615245.06615245 0 1 0 .0606.11719l.23047-.11914a.0664148.0664148 0 0 0-.0449-.125zM-224.53125 277.67383a.06615245.06615245 0 0 0-.0156.008l-.23046.11914a.06640735.06640735 0 1 0 .0625.11719l.22851-.11914a.06641311.06641311 0 0 0-.0449-.125zM-224.51953 277.9375a.06615245.06615245 0 0 0-.0234.008l-.23047.11914a.06640735.06640735 0 1 0 .0625.11719l.22852-.11914a.06615245.06615245 0 0 0-.0371-.125zM-224.51562 278.21875a.06615245.06615245 0 0 0-.0234.008l-.23047.11914a.06640735.06640735 0 1 0 .0625.11719l.22851-.11914a.06615245.06615245 0 0 0-.0371-.125zM-226.10742 277.33594a.06615245.06615245 0 0 0-.0352.11523c0 0 .0368.0354.0859.0762.0491.0408.10626.0864.16406.11133.0531.0229.1148.0299.16797.0352.0532.005.0977.006.0977.006a.06615245.06615245 0 1 0 .002-.13086c0 0-.0382-.001-.0859-.006-.0477-.005-.10588-.0155-.1289-.0254-.0277-.012-.0854-.0541-.13086-.0918-.0455-.0377-.082-.0703-.082-.0703a.06615245.06615245 0 0 0-.0547-.0195zM-226.00781 275.39844a.06615245.06615245 0 0 0-.043.10937c.12799.15135.26577.3285.4375.59961a.06615245.06615245 0 0 0 .0508.0312l.16992.0137a.06659297.06659297 0 1 0 .01-.13281l-.13867-.01c-.16435-.25614-.3026-.43992-.42774-.58789a.06615245.06615245 0 0 0-.0586-.0234z" color="#000" font-family="sans-serif" font-weight="400" overflow="visible" style="line-height:normal;font-variant-ligatures:normal;font-variant-position:normal;font-variant-caps:normal;font-variant-numeric:normal;font-variant-alternates:normal;font-feature-settings:normal;text-indent:0;text-align:start;text-decoration-line:none;text-decoration-style:solid;text-decoration-color:#000;text-transform:none;text-orientation:mixed;shape-padding:0;isolation:auto;mix-blend-mode:normal"/></g></g></svg>