<svg xmlns="http://www.w3.org/2000/svg" width="48" height="48" viewBox="0 0 48 48"><defs><clipPath id="a" clipPathUnits="userSpaceOnUse"><rect width="53.42" height="53.526" x="-340.204" y="1444.172" fill="#36d7b7" stroke-linecap="round" stroke-width="1.5" rx="36" ry="36"/></clipPath></defs><g stroke-linecap="round" transform="matrix(.66667 0 0 .66667 392.738 -1260.677)"><rect width="72" height="72" x="-589.107" y="1891.015" fill="#36d7b7" rx="36" ry="36"/><g stroke="#3b3240" stroke-linejoin="round" stroke-width="1.114" clip-path="url(#a)" transform="matrix(1.3478 0 0 1.34515 -130.58 -51.608)"><path fill="#a97c50" fill-rule="evenodd" d="M-313.637 1473.853l9 16.991-5 8.996h-20l-5-8.996 9-16.991"/><path fill="#fbb040" d="M-328.637 1466.854a8.984 8.984 0 0 0 4.5 7.782 9.012 9.012 0 0 0 9 0 8.984 8.984 0 0 0 4.5-7.782v-13.014l-9 6-9-6z"/><path fill="none" d="M-314.65 1463.847l-1.974.987M-324.624 1463.847l1.974.987M-305.626 1487.831l7.989-6.951-4.99-7.993 4.99-6.993"/></g></g></svg>