<svg xmlns="http://www.w3.org/2000/svg" viewBox="0 0 48 48"><path fill="#98c9f0" d="M32,1H9A2,2,0,0,0,7,3V45a2,2,0,0,0,2,2H39a2,2,0,0,0,2-2V10Z"/><path fill="#5684a8" d="M32,1V9a1,1,0,0,0,1,1h8Z"/><path fill="#ffe477" d="M38,24.069V24H10v.069A8,8,0,1,0,18.738,34H29.262A8,8,0,1,0,38,24.069Z"/><path fill="#3d3d3d" d="M40 45a1 1 0 0 1-1 1H9a1 1 0 0 1-1-1V42H6v3a3 3 0 0 0 3 3H39a3 3 0 0 0 3-3V42H40zM8 3A1 1 0 0 1 9 2H31V8a3 3 0 0 0 3 3h6V22h2V10c0-.021-.011-.04-.012-.061a1 1 0 0 0-.052-.26c-.011-.032-.019-.062-.033-.093a1 1 0 0 0-.2-.293l-9-9A1 1 0 0 0 32.416.1a.9.9 0 0 0-.1-.035 1.019 1.019 0 0 0-.249-.05C32.044.012 32.023 0 32 0H9A3 3 0 0 0 6 3V22H8zM38.586 9H34a1 1 0 0 1-1-1V3.414z"/><path fill="#3d3d3d" d="M37,23H27V21H25V19h4a2,2,0,0,0,2-2V14H29v3H25a2,2,0,0,0-2,2v2H21v2H11a9,9,0,1,0,8.49,12h9.02A9,9,0,1,0,37,23Zm0,16a7,7,0,0,1-6.781-5.25A1,1,0,0,0,29.25,33H18.75a1,1,0,0,0-.969.75A7,7,0,1,1,11,25H37a7,7,0,0,1,0,14Z"/><polygon fill="#3d3d3d" points="12 29 10 29 10 31 8 31 8 33 10 33 10 35 12 35 12 33 14 33 14 31 12 31 12 29"/><rect width="2" height="2" x="35" y="29" fill="#3d3d3d"/><rect width="2" height="2" x="39" y="31" fill="#3d3d3d"/><rect width="2" height="2" x="36" y="33" fill="#3d3d3d"/><rect width="2" height="2" x="32" y="31" fill="#3d3d3d"/><rect width="2" height="2" x="26" y="29" fill="#3d3d3d"/><rect width="2" height="2" x="21" y="29" fill="#3d3d3d"/><rect width="2" height="2" x="12" y="6" fill="#3d3d3d"/><rect width="4" height="2" x="16" y="6" fill="#3d3d3d"/><rect width="8" height="2" x="12" y="10" fill="#3d3d3d"/></svg>