<svg xmlns="http://www.w3.org/2000/svg" data-name="Layer 1" viewBox="0 0 512 512"><path fill="#00efd1" d="M403.3,93.01V156.4h-214v72.5a21.5,21.5,0,0,1-43,0V160.4h-43v38.5a21.5,21.5,0,0,1-43,0V156.4h-28V29.4h371Z"/><polygon fill="#00acea" points="236.8 324.22 280.42 324.22 280.42 482.6 189.22 482.6 189.22 324.22 236.8 324.22"/><path fill="#083863" d="M479.7,85H411V29.4c0-4.418-3.282-8.4-7.7-8.4H32.3A8.611,8.611,0,0,0,24,29.4v127c0,4.418,3.882,7.6,8.3,7.6H52v34.9a29.5,29.5,0,1,0,59,0V168h27v60.9a29.5,29.5,0,1,0,59,0V164H403.3a7.416,7.416,0,0,0,7.7-7.6V101h61V259H236.8a7.605,7.605,0,0,0-7.8,7.73V316H189.22a8.381,8.381,0,0,0-8.22,8.22V482.6a8.541,8.541,0,0,0,8.22,8.4h91.2c4.418,0,7.58-3.982,7.58-8.4V324.22c0-4.418-3.162-8.22-7.58-8.22H245V275H479.7a8.5,8.5,0,0,0,8.3-8.27V93.01A8.27,8.27,0,0,0,479.7,85ZM395,148H189.3a8.611,8.611,0,0,0-8.3,8.4v72.5a13.387,13.387,0,0,1-13.35,13.5A13.637,13.637,0,0,1,154,228.9V160.4c0-4.418-3.282-8.4-7.7-8.4h-43a8.611,8.611,0,0,0-8.3,8.4v38.5a13.387,13.387,0,0,1-13.35,13.5A13.637,13.637,0,0,1,68,198.9V156.4c0-4.418-3.282-8.4-7.7-8.4H40V37H395ZM272,475H197V332h75Z"/></svg>