<svg xmlns="http://www.w3.org/2000/svg" enable-background="new 0 0 64 64" viewBox="0 0 64 64"><ellipse cx="47.8" cy="19.3" fill="#d1834f" rx="4.7" ry="2.8" transform="rotate(-36.571 47.853 19.315)"/><path fill="#dce0e0" d="M59,38.6h-11c-2.2,0-4-1.8-4-4v0c0-2.2,1.8-4,4-4h11c2.2,0,4,1.8,4,4v0C63.1,36.8,61.3,38.6,59,38.6z"/><path fill="#eff3f6" d="M57.8,37.7h-8.4c-1.7,0-3.1-1.4-3.1-3.1v0c0-1.7,1.4-3.1,3.1-3.1h8.4c1.7,0,3.1,1.4,3.1,3.1v0
			C60.9,36.3,59.5,37.7,57.8,37.7z"/><path fill="#dce0e0" d="M56.8,37h-6.5c-1.3,0-2.4-1.1-2.4-2.4v0c0-1.3,1.1-2.4,2.4-2.4h6.5c1.3,0,2.4,1.1,2.4,2.4v0
			C59.2,35.9,58.1,37,56.8,37z"/><path fill="#eff3f6" d="M56.1,36.4h-5c-1,0-1.9-0.8-1.9-1.9v0c0-1,0.8-1.9,1.9-1.9h5c1,0,1.9,0.8,1.9,1.9v0
			C57.9,35.6,57.1,36.4,56.1,36.4z"/><path fill="#fdd985" d="M56.4,26C56.4,26,56.4,26,56.4,26c0-0.1-3.2-4.4-8.4-5c-0.1,0-0.2,0.1-0.2,0.1c-0.7,0.2-1.3,0.5-1.8,0.8h0
		c-0.4,0.2-0.9,0.5-1.3,0.8c-1,0.7-1.8,1.5-2.3,2.4c0,0,0,0,0,0c0,0,0,0.1-0.1,0.1c-1.1,1.7-1.4,3.6-0.9,5.3c0.3,1,1,1.9,1.8,2.6
		c1.3,1.1,3.2,1.8,5.2,1.8c0.6,0,1.2,0,1.8-0.1c0,0,0,0,0,0c0.7-0.1,1.5-0.3,2.2-0.5c0.9-0.3,1.8-0.7,2.6-1.2h0c0,0,0,0,0,0
		C55.1,32.9,57.3,27.7,56.4,26z M44.9,25.8L44.9,25.8C44.9,25.6,44.9,25.8,44.9,25.8z"/><path fill="#fdd985" d="M49.9,47.4c-0.1,0.1-0.3,0.2-0.5,0.3c-0.3,0.1-0.7,0.3-1.2,0.3c-0.1,0-0.3,0.1-0.4,0.1c-0.5,0.1-1,0.1-1.5,0.2
		c-0.1,0-0.1,0-0.2,0c-1.2,0.1-2.4,0-3.6,0c-2.8-0.2-5.3-0.5-5.5-0.6c0,0,0,0,0,0h-0.4c-1.2,0-1.7-0.1-1.9-0.3
		c-0.3-0.3-0.8-0.5-1.2-0.5h-6.6c-1.4,0.4-4,0.6-7,0.6c-3,0-5.7-0.3-7-0.6h-2.2c-3.6,0.4-4.4-1.2-4.3-2.7c0-0.2,0-0.5,0.1-0.7
		c0,0,0,0,0,0c0.2-0.9,0.5-1.7,0.5-1.7h0c0,0,2.8-5.8,18.9-10.1C13.7,33,7,39.2,5,42.9H0V21c3.4,0.5,12.6,1.6,17.2,0
		c1.8-0.6,3.6-1,5.5-1c8,0,11.3,0.2,15.4,3.6c0.5,0.4,0.9,0.8,1.4,1.3l2.7,0.5h0c-1.1,1.7-1.4,3.6-0.9,5.3c0.3,1,1,1.9,1.8,2.6
		c-0.3,0.1-0.5,0.3-0.8,0.5c-0.9,0.5-1.9,1.1-2.6,1.6c-0.3,0.2-0.5,0.4-0.7,0.5c0,0,0,0,0,0c-1,3.9-4.4,4.5-4.4,4.5
		c-1.4,0.1-2.2,0.4-2.6,0.7c-1.6-0.1-3.3-0.2-4.9-0.2c-3.2,0-6.3,0.1-9.4,0.4c3.1,0,6.3,0.2,9.4,0.6c1.7,0.2,3.4,0.5,5.1,0.8v0
		c1.6,0.2,3,0.3,4.2,0.2c0.8,0,1.5-0.1,2.1-0.2c1-0.2,1.8-0.4,2.3-0.6c0.6-0.2,1.3-0.3,1.9-0.2c2.6,0.2,4.5,1.1,5.9,2.1
		c0.9,0.3,1.6,0.8,1.9,1.8C50.7,46.4,50.4,47,49.9,47.4z"/><path fill="#fdd985" d="M32.2,42.6L32.2,42.6c-1.7-0.3-3.4-0.6-5.1-0.8c-3.1-0.4-6.2-0.6-9.4-0.6c3.1-0.3,6.3-0.5,9.4-0.4
		c1.6,0,3.3,0.1,4.9,0.2C31.1,41.7,32.2,42.6,32.2,42.6z"/><path fill="#f1ba73" d="M39.7,35.2c-0.3,0.2-0.5,0.4-0.7,0.5c0,0,0,0,0,0c-0.4-2.4-2.4-4.2-4.9-4.3h0.2C36.8,31.5,38.9,33,39.7,35.2z
		"/><path fill="#fdd985" d="M6.8,41.8L6.8,41.8c0,0-0.3,0.7-0.5,1.7c0,0,0,0,0,0c0,0.2-0.1,0.4-0.1,0.7H0v-1.2h5c2-3.7,8.7-9.9,20.7-11.2
		C9.5,36,6.8,41.8,6.8,41.8z"/><path fill="#fdba73" d="M6.8,41.8L6.8,41.8c0,0-0.3,0.7-0.5,1.7c0,0,0,0,0,0c-0.1,0.2-0.2,0.4-0.3,0.7H0v-1.2h5
		c2-3.7,8.7-9.9,20.7-11.2C9.5,36,6.8,41.8,6.8,41.8z"/><path fill="#fdc87c" d="M32.2,42.6L32.2,42.6c-1.7-0.3-3.4-0.6-5.1-0.8c-3.1-0.4-6.2-0.6-9.4-0.6c3.1-0.3,6.3-0.5,9.4-0.4
		c1.6,0,3.3,0.1,4.9,0.2C31.1,41.7,32.2,42.6,32.2,42.6z"/><path fill="#c4773f" d="M44.9,25.8L44.9,25.8C44.9,25.6,44.9,25.8,44.9,25.8z"/><path fill="#fdd985" d="M44.9,25.8L44.9,25.8C44.9,25.6,44.9,25.8,44.9,25.8z"/><path fill="#f1ba73" d="M43.1,33.2c-0.3,0.1-0.5,0.3-0.8,0.5c-0.6-0.6-1.1-1.4-1.4-2.2c-0.7-2-0.1-4.2,1.3-6.1c0,0,0-0.1,0.1-0.1
		c0,0,0,0.1-0.1,0.1c-1.1,1.7-1.4,3.6-0.9,5.3C41.7,31.6,42.3,32.5,43.1,33.2z"/><path fill="#fdd985" d="M44.9,25.8L44.9,25.8C44.9,25.6,44.9,25.8,44.9,25.8z"/><ellipse cx="2.5" cy="23.1" fill="#445c6c" rx="2.5" ry="1.7"/><ellipse cx="10.9" cy="23.2" fill="#445c6c" rx="2.5" ry="1.7" transform="rotate(-12.552 10.934 23.184)"/><ellipse cx="19" cy="21.6" fill="#445c6c" rx="2.5" ry="1.7" transform="rotate(-15.284 18.968 21.605)"/><ellipse cx="26.5" cy="21.1" fill="#445c6c" rx="2.5" ry="1.7" transform="rotate(-3.775 26.496 21.076) scale(.99997)"/><ellipse cx="33.6" cy="22.5" fill="#445c6c" rx="1.7" ry="2.5" transform="rotate(-72.866 33.58 22.513)"/><ellipse cx="37.8" cy="25.9" fill="#445c6c" rx="1.7" ry="2.5" transform="rotate(-38.365 37.845 25.877)"/><path fill="#d1834f" d="M55,33.3C55,33.3,55,33.3,55,33.3C55,33.3,55,33.3,55,33.3c0.1-0.3,1.3-3.2,1.6-5.4c-3.9-0.7-6.6-4.3-8.1-6.8
		c-0.2,0-0.3-0.1-0.5-0.1c-0.7,0.2-1.4,0.5-2.1,0.9h0c-0.4,0.2-0.9,0.5-1.3,0.8h-0.1c0.4-2.7,3.3-5,3.5-5.1c0,0,0,0,0,0
		c1.5-0.8,3.1-1.1,4.7-0.9c5.4,0.7,10.9,6.1,11.2,10.6C64.3,30.6,61.9,33.3,55,33.3z"/></svg>