<?xml version="1.0" encoding="UTF-8"?>
<svg xmlns="http://www.w3.org/2000/svg" xmlns:xlink="http://www.w3.org/1999/xlink" width="375pt" height="374.999991pt" viewBox="0 0 375 374.999991" version="1.2">
<g id="surface1">
<path style=" stroke:none;fill-rule:nonzero;fill:rgb(96.469116%,65.489197%,14.118958%);fill-opacity:1;" d="M 187.886719 26.710938 C 185.25 26.710938 182.613281 26.777344 179.980469 26.90625 C 177.34375 27.035156 174.714844 27.230469 172.089844 27.488281 C 169.464844 27.746094 166.847656 28.070312 164.238281 28.457031 C 161.628906 28.84375 159.03125 29.292969 156.445312 29.808594 C 153.855469 30.324219 151.285156 30.902344 148.726562 31.542969 C 146.167969 32.183594 143.625 32.886719 141.101562 33.652344 C 138.578125 34.417969 136.074219 35.246094 133.589844 36.132812 C 131.105469 37.023438 128.644531 37.972656 126.207031 38.980469 C 123.769531 39.992188 121.359375 41.058594 118.976562 42.1875 C 116.589844 43.316406 114.234375 44.5 111.910156 45.742188 C 109.582031 46.988281 107.289062 48.285156 105.027344 49.644531 C 102.765625 51 100.535156 52.410156 98.34375 53.875 C 96.148438 55.339844 93.992188 56.859375 91.875 58.429688 C 89.757812 60 87.679688 61.625 85.640625 63.296875 C 83.601562 64.972656 81.601562 66.691406 79.648438 68.464844 C 77.695312 70.234375 75.785156 72.054688 73.917969 73.917969 C 72.054688 75.785156 70.234375 77.695312 68.464844 79.648438 C 66.691406 81.601562 64.972656 83.601562 63.296875 85.640625 C 61.625 87.679688 60 89.757812 58.429688 91.875 C 56.859375 93.992188 55.339844 96.148438 53.875 98.34375 C 52.410156 100.535156 51 102.765625 49.644531 105.027344 C 48.285156 107.289062 46.988281 109.582031 45.742188 111.910156 C 44.5 114.234375 43.316406 116.589844 42.1875 118.976562 C 41.058594 121.359375 39.992188 123.769531 38.980469 126.207031 C 37.972656 128.644531 37.023438 131.105469 36.132812 133.589844 C 35.246094 136.074219 34.417969 138.578125 33.652344 141.101562 C 32.886719 143.625 32.183594 146.167969 31.542969 148.726562 C 30.902344 151.285156 30.324219 153.855469 29.808594 156.445312 C 29.292969 159.03125 28.84375 161.628906 28.457031 164.238281 C 28.070312 166.847656 27.746094 169.464844 27.488281 172.089844 C 27.230469 174.714844 27.035156 177.34375 26.90625 179.980469 C 26.777344 182.613281 26.710938 185.25 26.710938 187.886719 C 26.710938 190.523438 26.777344 193.160156 26.90625 195.796875 C 27.035156 198.429688 27.230469 201.058594 27.488281 203.683594 C 27.746094 206.308594 28.070312 208.925781 28.457031 211.535156 C 28.84375 214.144531 29.292969 216.742188 29.808594 219.332031 C 30.324219 221.917969 30.902344 224.492188 31.542969 227.050781 C 32.183594 229.609375 32.886719 232.148438 33.652344 234.671875 C 34.417969 237.199219 35.246094 239.703125 36.132812 242.183594 C 37.023438 244.667969 37.972656 247.128906 38.980469 249.566406 C 39.992188 252.003906 41.058594 254.414062 42.1875 256.796875 C 43.316406 259.183594 44.5 261.539062 45.742188 263.863281 C 46.988281 266.191406 48.285156 268.484375 49.644531 270.746094 C 51 273.007812 52.410156 275.238281 53.875 277.429688 C 55.339844 279.625 56.859375 281.78125 58.429688 283.898438 C 60 286.015625 61.625 288.097656 63.296875 290.136719 C 64.972656 292.175781 66.691406 294.171875 68.464844 296.125 C 70.234375 298.078125 72.054688 299.988281 73.917969 301.855469 C 75.785156 303.71875 77.695312 305.539062 79.648438 307.308594 C 81.601562 309.082031 83.601562 310.804688 85.640625 312.476562 C 87.679688 314.148438 89.757812 315.773438 91.875 317.34375 C 93.992188 318.914062 96.148438 320.433594 98.34375 321.898438 C 100.535156 323.363281 102.765625 324.773438 105.027344 326.132812 C 107.289062 327.488281 109.582031 328.785156 111.910156 330.03125 C 114.234375 331.273438 116.589844 332.460938 118.976562 333.585938 C 121.359375 334.714844 123.769531 335.785156 126.207031 336.792969 C 128.644531 337.800781 131.105469 338.75 133.589844 339.640625 C 136.074219 340.527344 138.578125 341.355469 141.101562 342.121094 C 143.625 342.886719 146.167969 343.589844 148.726562 344.230469 C 151.285156 344.871094 153.855469 345.449219 156.445312 345.964844 C 159.03125 346.480469 161.628906 346.929688 164.238281 347.316406 C 166.847656 347.703125 169.464844 348.027344 172.089844 348.285156 C 174.714844 348.542969 177.34375 348.738281 179.980469 348.867188 C 182.613281 348.996094 185.25 349.0625 187.886719 349.0625 C 190.523438 349.0625 193.160156 348.996094 195.796875 348.867188 C 198.429688 348.738281 201.058594 348.542969 203.683594 348.285156 C 206.308594 348.027344 208.925781 347.703125 211.535156 347.316406 C 214.144531 346.929688 216.742188 346.480469 219.332031 345.964844 C 221.917969 345.449219 224.492188 344.871094 227.050781 344.230469 C 229.609375 343.589844 232.148438 342.886719 234.671875 342.121094 C 237.199219 341.355469 239.703125 340.527344 242.183594 339.640625 C 244.667969 338.75 247.128906 337.800781 249.566406 336.792969 C 252.003906 335.785156 254.414062 334.714844 256.796875 333.585938 C 259.183594 332.460938 261.539062 331.273438 263.863281 330.03125 C 266.191406 328.785156 268.484375 327.488281 270.746094 326.132812 C 273.007812 324.773438 275.238281 323.363281 277.429688 321.898438 C 279.625 320.433594 281.78125 318.914062 283.898438 317.34375 C 286.015625 315.773438 288.097656 314.148438 290.136719 312.476562 C 292.175781 310.804688 294.171875 309.082031 296.125 307.308594 C 298.078125 305.539062 299.988281 303.71875 301.855469 301.855469 C 303.71875 299.988281 305.539062 298.078125 307.308594 296.125 C 309.082031 294.171875 310.804688 292.175781 312.476562 290.136719 C 314.148438 288.097656 315.773438 286.015625 317.34375 283.898438 C 318.914062 281.78125 320.433594 279.625 321.898438 277.429688 C 323.363281 275.238281 324.773438 273.007812 326.132812 270.746094 C 327.488281 268.484375 328.785156 266.191406 330.03125 263.863281 C 331.273438 261.539062 332.460938 259.183594 333.585938 256.796875 C 334.714844 254.414062 335.785156 252.003906 336.792969 249.566406 C 337.800781 247.128906 338.75 244.667969 339.640625 242.183594 C 340.527344 239.703125 341.355469 237.199219 342.121094 234.671875 C 342.886719 232.148438 343.589844 229.609375 344.230469 227.050781 C 344.871094 224.492188 345.449219 221.917969 345.964844 219.332031 C 346.480469 216.742188 346.929688 214.144531 347.316406 211.535156 C 347.703125 208.925781 348.027344 206.308594 348.285156 203.683594 C 348.542969 201.058594 348.738281 198.429688 348.867188 195.796875 C 348.996094 193.160156 349.0625 190.523438 349.0625 187.886719 C 349.0625 185.25 348.996094 182.613281 348.867188 179.980469 C 348.738281 177.34375 348.542969 174.714844 348.285156 172.089844 C 348.027344 169.464844 347.703125 166.847656 347.316406 164.238281 C 346.929688 161.628906 346.480469 159.03125 345.964844 156.445312 C 345.449219 153.855469 344.871094 151.285156 344.230469 148.726562 C 343.589844 146.167969 342.886719 143.625 342.121094 141.101562 C 341.355469 138.578125 340.527344 136.074219 339.640625 133.589844 C 338.75 131.105469 337.800781 128.644531 336.792969 126.207031 C 335.785156 123.769531 334.714844 121.359375 333.585938 118.976562 C 332.460938 116.589844 331.273438 114.234375 330.03125 111.910156 C 328.785156 109.582031 327.488281 107.289062 326.132812 105.027344 C 324.773438 102.765625 323.363281 100.535156 321.898438 98.34375 C 320.433594 96.148438 318.914062 93.992188 317.34375 91.875 C 315.773438 89.757812 314.148438 87.679688 312.476562 85.640625 C 310.804688 83.601562 309.082031 81.601562 307.308594 79.648438 C 305.539062 77.695312 303.71875 75.785156 301.855469 73.917969 C 299.988281 72.054688 298.078125 70.234375 296.125 68.464844 C 294.171875 66.691406 292.175781 64.972656 290.136719 63.296875 C 288.097656 61.625 286.015625 60 283.898438 58.429688 C 281.78125 56.859375 279.625 55.339844 277.429688 53.875 C 275.238281 52.410156 273.007812 51 270.746094 49.644531 C 268.484375 48.285156 266.191406 46.988281 263.863281 45.742188 C 261.539062 44.5 259.183594 43.316406 256.796875 42.1875 C 254.414062 41.058594 252.003906 39.992188 249.566406 38.980469 C 247.128906 37.972656 244.667969 37.023438 242.183594 36.132812 C 239.703125 35.246094 237.199219 34.417969 234.671875 33.652344 C 232.148438 32.886719 229.609375 32.183594 227.050781 31.542969 C 224.492188 30.902344 221.917969 30.324219 219.332031 29.808594 C 216.742188 29.292969 214.144531 28.84375 211.535156 28.457031 C 208.925781 28.070312 206.308594 27.746094 203.683594 27.488281 C 201.058594 27.230469 198.429688 27.035156 195.796875 26.90625 C 193.160156 26.777344 190.523438 26.710938 187.886719 26.710938 Z M 187.886719 26.710938 "/>
<path style=" stroke:none;fill-rule:nonzero;fill:rgb(19.60907%,56.469727%,56.079102%);fill-opacity:1;" d="M 187.5 0 C 84.105469 0 0 84.105469 0 187.5 C 0 245.8125 26.304688 299.652344 72.082031 335.167969 C 98.4375 355.902344 129.804688 369.105469 162.5625 373.285156 C 170.679688 374.4375 179.089844 375 187.5 375 C 195.910156 375 204.320312 374.4375 212.222656 373.3125 C 245.195312 369.105469 276.5625 355.929688 302.867188 335.222656 C 348.722656 299.652344 375 245.785156 375 187.5 C 375 84.105469 290.867188 0 187.5 0 Z M 294.644531 306.910156 L 294.644531 288.75 C 294.644531 262.5 246.695312 241.070312 187.5 241.070312 C 128.304688 241.070312 80.355469 262.5 80.355469 288.75 L 80.355469 306.910156 C 46.3125 276.617188 26.785156 233.785156 26.785156 187.5 C 26.785156 98.867188 98.867188 26.785156 187.5 26.785156 C 276.132812 26.785156 348.214844 98.867188 348.214844 187.5 C 348.214844 233.757812 328.714844 276.535156 294.644531 306.910156 Z M 294.644531 306.910156 "/>
<path style=" stroke:none;fill-rule:nonzero;fill:rgb(19.60907%,56.469727%,56.079102%);fill-opacity:1;" d="M 254.464844 147.320312 C 254.464844 148.417969 254.4375 149.511719 254.382812 150.605469 C 254.328125 151.703125 254.25 152.792969 254.140625 153.886719 C 254.035156 154.976562 253.898438 156.0625 253.738281 157.148438 C 253.578125 158.230469 253.390625 159.3125 253.175781 160.386719 C 252.964844 161.460938 252.722656 162.53125 252.457031 163.59375 C 252.191406 164.65625 251.898438 165.710938 251.582031 166.761719 C 251.261719 167.808594 250.917969 168.847656 250.550781 169.882812 C 250.179688 170.914062 249.785156 171.933594 249.367188 172.949219 C 248.949219 173.960938 248.503906 174.960938 248.035156 175.953125 C 247.566406 176.941406 247.074219 177.921875 246.558594 178.886719 C 246.039062 179.855469 245.5 180.808594 244.9375 181.746094 C 244.375 182.6875 243.789062 183.613281 243.179688 184.523438 C 242.570312 185.4375 241.9375 186.332031 241.285156 187.210938 C 240.632812 188.09375 239.960938 188.957031 239.265625 189.804688 C 238.570312 190.648438 237.851562 191.480469 237.117188 192.292969 C 236.382812 193.105469 235.625 193.898438 234.851562 194.671875 C 234.074219 195.445312 233.28125 196.203125 232.46875 196.9375 C 231.660156 197.675781 230.828125 198.390625 229.980469 199.085938 C 229.132812 199.78125 228.269531 200.453125 227.390625 201.109375 C 226.511719 201.761719 225.613281 202.390625 224.703125 203 C 223.792969 203.609375 222.867188 204.195312 221.925781 204.757812 C 220.988281 205.320312 220.035156 205.863281 219.066406 206.378906 C 218.101562 206.894531 217.121094 207.386719 216.132812 207.855469 C 215.140625 208.324219 214.136719 208.769531 213.125 209.1875 C 212.113281 209.609375 211.089844 210.003906 210.058594 210.371094 C 209.027344 210.742188 207.988281 211.085938 206.9375 211.402344 C 205.890625 211.71875 204.835938 212.011719 203.769531 212.277344 C 202.707031 212.546875 201.640625 212.785156 200.5625 213 C 199.488281 213.210938 198.410156 213.398438 197.324219 213.5625 C 196.242188 213.722656 195.152344 213.855469 194.0625 213.964844 C 192.972656 214.070312 191.878906 214.152344 190.785156 214.203125 C 189.691406 214.257812 188.597656 214.285156 187.5 214.285156 C 186.402344 214.285156 185.308594 214.257812 184.214844 214.203125 C 183.121094 214.152344 182.027344 214.070312 180.9375 213.964844 C 179.84375 213.855469 178.757812 213.722656 177.675781 213.5625 C 176.589844 213.398438 175.511719 213.210938 174.4375 213 C 173.359375 212.785156 172.292969 212.546875 171.230469 212.277344 C 170.164062 212.011719 169.109375 211.71875 168.0625 211.402344 C 167.011719 211.085938 165.972656 210.742188 164.941406 210.371094 C 163.910156 210.003906 162.886719 209.609375 161.875 209.1875 C 160.863281 208.769531 159.859375 208.324219 158.867188 207.855469 C 157.878906 207.386719 156.898438 206.894531 155.933594 206.378906 C 154.964844 205.863281 154.011719 205.320312 153.074219 204.757812 C 152.132812 204.195312 151.207031 203.609375 150.296875 203 C 149.386719 202.390625 148.488281 201.761719 147.609375 201.109375 C 146.730469 200.453125 145.867188 199.78125 145.019531 199.085938 C 144.171875 198.390625 143.339844 197.675781 142.53125 196.9375 C 141.71875 196.203125 140.925781 195.445312 140.148438 194.671875 C 139.375 193.898438 138.617188 193.105469 137.882812 192.292969 C 137.148438 191.480469 136.429688 190.648438 135.734375 189.804688 C 135.039062 188.957031 134.367188 188.09375 133.714844 187.210938 C 133.0625 186.332031 132.429688 185.4375 131.820312 184.523438 C 131.210938 183.613281 130.625 182.6875 130.0625 181.746094 C 129.5 180.808594 128.960938 179.855469 128.441406 178.886719 C 127.925781 177.921875 127.433594 176.941406 126.964844 175.953125 C 126.496094 174.960938 126.050781 173.960938 125.632812 172.949219 C 125.214844 171.933594 124.820312 170.914062 124.449219 169.882812 C 124.082031 168.847656 123.738281 167.808594 123.417969 166.761719 C 123.101562 165.710938 122.808594 164.65625 122.542969 163.59375 C 122.277344 162.53125 122.035156 161.460938 121.824219 160.386719 C 121.609375 159.3125 121.421875 158.230469 121.261719 157.148438 C 121.101562 156.0625 120.964844 154.976562 120.859375 153.886719 C 120.75 152.792969 120.671875 151.703125 120.617188 150.605469 C 120.5625 149.511719 120.535156 148.417969 120.535156 147.320312 C 120.535156 146.226562 120.5625 145.128906 120.617188 144.035156 C 120.671875 142.941406 120.75 141.847656 120.859375 140.757812 C 120.964844 139.667969 121.101562 138.578125 121.261719 137.496094 C 121.421875 136.410156 121.609375 135.332031 121.824219 134.257812 C 122.035156 133.183594 122.277344 132.113281 122.542969 131.050781 C 122.808594 129.988281 123.101562 128.929688 123.417969 127.882812 C 123.738281 126.835938 124.082031 125.792969 124.449219 124.761719 C 124.820312 123.730469 125.214844 122.707031 125.632812 121.695312 C 126.050781 120.683594 126.496094 119.679688 126.964844 118.691406 C 127.433594 117.699219 127.925781 116.722656 128.441406 115.753906 C 128.960938 114.789062 129.5 113.835938 130.0625 112.894531 C 130.625 111.953125 131.210938 111.027344 131.820312 110.117188 C 132.429688 109.207031 133.0625 108.3125 133.714844 107.429688 C 134.367188 106.550781 135.039062 105.6875 135.734375 104.839844 C 136.429688 103.992188 137.148438 103.164062 137.882812 102.351562 C 138.617188 101.539062 139.375 100.746094 140.148438 99.96875 C 140.925781 99.195312 141.71875 98.441406 142.53125 97.703125 C 143.339844 96.96875 144.171875 96.253906 145.019531 95.558594 C 145.867188 94.863281 146.730469 94.1875 147.609375 93.535156 C 148.488281 92.882812 149.386719 92.25 150.296875 91.644531 C 151.207031 91.035156 152.132812 90.449219 153.074219 89.882812 C 154.011719 89.320312 154.964844 88.78125 155.933594 88.265625 C 156.898438 87.746094 157.878906 87.253906 158.867188 86.785156 C 159.859375 86.316406 160.863281 85.875 161.875 85.453125 C 162.886719 85.035156 163.910156 84.640625 164.941406 84.273438 C 165.972656 83.902344 167.011719 83.558594 168.0625 83.242188 C 169.109375 82.921875 170.164062 82.628906 171.230469 82.363281 C 172.292969 82.097656 173.359375 81.859375 174.4375 81.644531 C 175.511719 81.429688 176.589844 81.242188 177.675781 81.082031 C 178.757812 80.921875 179.847656 80.785156 180.9375 80.679688 C 182.027344 80.570312 183.121094 80.492188 184.214844 80.4375 C 185.308594 80.382812 186.402344 80.355469 187.5 80.355469 C 188.597656 80.355469 189.691406 80.382812 190.785156 80.4375 C 191.878906 80.492188 192.972656 80.570312 194.0625 80.679688 C 195.152344 80.785156 196.242188 80.921875 197.324219 81.082031 C 198.410156 81.242188 199.488281 81.429688 200.5625 81.644531 C 201.640625 81.859375 202.707031 82.097656 203.769531 82.363281 C 204.835938 82.628906 205.890625 82.921875 206.9375 83.242188 C 207.988281 83.558594 209.027344 83.902344 210.058594 84.273438 C 211.089844 84.640625 212.113281 85.035156 213.125 85.453125 C 214.136719 85.875 215.140625 86.316406 216.132812 86.785156 C 217.121094 87.253906 218.101562 87.746094 219.066406 88.265625 C 220.035156 88.78125 220.988281 89.320312 221.925781 89.882812 C 222.867188 90.449219 223.792969 91.035156 224.703125 91.644531 C 225.613281 92.25 226.511719 92.882812 227.390625 93.535156 C 228.269531 94.1875 229.132812 94.863281 229.980469 95.558594 C 230.828125 96.253906 231.660156 96.96875 232.46875 97.703125 C 233.28125 98.441406 234.074219 99.195312 234.851562 99.96875 C 235.625 100.746094 236.382812 101.539062 237.117188 102.351562 C 237.851562 103.164062 238.570312 103.992188 239.265625 104.839844 C 239.960938 105.6875 240.632812 106.550781 241.285156 107.429688 C 241.9375 108.3125 242.570312 109.207031 243.179688 110.117188 C 243.789062 111.027344 244.375 111.953125 244.9375 112.894531 C 245.5 113.835938 246.039062 114.789062 246.558594 115.753906 C 247.074219 116.722656 247.566406 117.699219 248.035156 118.691406 C 248.503906 119.679688 248.949219 120.683594 249.367188 121.695312 C 249.785156 122.707031 250.179688 123.730469 250.550781 124.761719 C 250.917969 125.792969 251.261719 126.835938 251.582031 127.882812 C 251.898438 128.929688 252.191406 129.988281 252.457031 131.050781 C 252.722656 132.113281 252.964844 133.183594 253.175781 134.257812 C 253.390625 135.332031 253.578125 136.410156 253.738281 137.496094 C 253.898438 138.578125 254.035156 139.667969 254.140625 140.757812 C 254.25 141.847656 254.328125 142.941406 254.382812 144.035156 C 254.4375 145.128906 254.464844 146.226562 254.464844 147.320312 Z M 254.464844 147.320312 "/>
</g>
</svg>
