<?xml version="1.0" encoding="UTF-8"?>
<svg xmlns="http://www.w3.org/2000/svg" xmlns:xlink="http://www.w3.org/1999/xlink" width="375pt" height="374.999991pt" viewBox="0 0 375 374.999991" version="1.2">
<defs>
<clipPath id="clip1">
  <path d="M 0 3.28125 L 213 3.28125 L 213 122 L 0 122 Z M 0 3.28125 "/>
</clipPath>
<clipPath id="clip2">
  <path d="M 169 15 L 375 15 L 375 371.34375 L 169 371.34375 Z M 169 15 "/>
</clipPath>
<clipPath id="clip3">
  <path d="M 0 134 L 200 134 L 200 371.34375 L 0 371.34375 Z M 0 134 "/>
</clipPath>
</defs>
<g id="surface1">
<path style=" stroke:none;fill-rule:nonzero;fill:rgb(100%,74.899292%,63.139343%);fill-opacity:1;" d="M 331.128906 177.953125 L 331.128906 271.53125 L 268.679688 271.53125 L 268.679688 177.953125 L 331.128906 177.953125 "/>
<path style=" stroke:none;fill-rule:nonzero;fill:rgb(100%,74.899292%,63.139343%);fill-opacity:1;" d="M 143.785156 46.949219 L 50.117188 46.949219 L 50.117188 103.09375 L 143.785156 103.09375 L 143.785156 46.949219 "/>
<path style=" stroke:none;fill-rule:nonzero;fill:rgb(100%,80.778503%,71.369934%);fill-opacity:1;" d="M 150.03125 171.714844 L 150.03125 234.101562 L 100.074219 284.007812 L 37.628906 252.816406 L 37.628906 160.125 C 37.628906 152.746094 43.617188 146.761719 51.003906 146.761719 C 57.660156 146.761719 63.304688 151.652344 64.246094 158.238281 L 68.851562 190.433594 L 93.828125 171.714844 L 150.03125 171.714844 "/>
<path style=" stroke:none;fill-rule:nonzero;fill:rgb(32.939148%,54.119873%,100%);fill-opacity:1;" d="M 37.628906 252.816406 L 100.074219 284.007812 L 62.605469 365.105469 L 6.402344 365.105469 L 6.402344 296.484375 L 37.628906 252.816406 "/>
<path style=" stroke:none;fill-rule:nonzero;fill:rgb(93.728638%,36.859131%,23.139954%);fill-opacity:1;" d="M 206.234375 115.570312 L 100.074219 115.570312 C 100.074219 68.722656 130.476562 28.96875 172.652344 14.933594 L 206.234375 115.570312 "/>
<path style=" stroke:none;fill-rule:nonzero;fill:rgb(100%,80.778503%,71.369934%);fill-opacity:1;" d="M 50.117188 78.140625 L 77.554688 78.140625 C 91.621094 78.140625 104.761719 71.117188 112.5625 59.421875 L 137.539062 59.425781 C 144.441406 59.429688 150.03125 53.839844 150.03125 46.949219 C 150.03125 40.058594 144.441406 34.476562 137.546875 34.472656 L 175.011719 34.472656 C 181.90625 34.472656 187.5 28.886719 187.5 21.996094 C 187.5 15.105469 181.90625 9.519531 175.011719 9.519531 L 111.859375 9.519531 C 88.890625 9.519531 67.441406 20.984375 54.703125 40.078125 L 50.117188 46.949219 L 50.117188 78.140625 "/>
<path style=" stroke:none;fill-rule:nonzero;fill:rgb(32.939148%,54.119873%,100%);fill-opacity:1;" d="M 6.402344 103.09375 L 50.117188 103.09375 L 50.117188 46.949219 L 6.402344 46.949219 L 6.402344 103.09375 "/>
<path style=" stroke:none;fill-rule:nonzero;fill:rgb(100%,76.858521%,19.219971%);fill-opacity:1;" d="M 343.617188 128.046875 C 343.617188 186.617188 296.085938 234.101562 237.457031 234.101562 C 214.4375 234.101562 193.136719 226.785156 175.746094 214.355469 L 237.457031 128.046875 L 203.878906 27.410156 C 214.429688 23.898438 225.71875 21.996094 237.457031 21.996094 C 296.085938 21.996094 343.617188 69.476562 343.617188 128.046875 "/>
<path style=" stroke:none;fill-rule:nonzero;fill:rgb(100%,80.778503%,71.369934%);fill-opacity:1;" d="M 299.90625 271.53125 L 299.90625 244.121094 C 299.90625 230.066406 306.9375 216.941406 318.644531 209.148438 L 318.640625 184.195312 C 318.640625 177.304688 324.230469 171.714844 331.128906 171.714844 C 338.023438 171.714844 343.617188 177.300781 343.617188 184.191406 L 343.617188 146.761719 C 343.617188 139.875 349.210938 134.285156 356.105469 134.285156 C 363.003906 134.285156 368.597656 139.875 368.597656 146.761719 L 368.597656 209.851562 C 368.597656 232.796875 357.121094 254.222656 338.007812 266.949219 L 331.128906 271.53125 L 299.90625 271.53125 "/>
<path style=" stroke:none;fill-rule:nonzero;fill:rgb(32.939148%,54.119873%,100%);fill-opacity:1;" d="M 268.679688 365.105469 L 268.679688 271.53125 L 337.371094 271.53125 L 337.371094 365.105469 L 268.679688 365.105469 "/>
<path style=" stroke:none;fill-rule:nonzero;fill:rgb(0.779724%,76.078796%,41.569519%);fill-opacity:1;" d="M 193.746094 140.523438 L 132.03125 226.832031 C 105.125 207.585938 87.585938 176.101562 87.585938 140.523438 L 193.746094 140.523438 "/>
<g clip-path="url(#clip1)" clip-rule="nonzero">
<path style=" stroke:none;fill-rule:nonzero;fill:rgb(0%,0%,0%);fill-opacity:1;" d="M 12.648438 53.1875 L 43.871094 53.1875 L 43.871094 96.855469 L 12.648438 96.855469 Z M 59.898438 43.539062 C 71.507812 26.140625 90.929688 15.757812 111.859375 15.757812 L 175.011719 15.757812 C 178.453125 15.757812 181.253906 18.558594 181.253906 21.996094 C 181.253906 25.433594 178.453125 28.234375 175.011719 28.234375 L 131.300781 28.230469 L 131.300781 28.234375 L 106.320312 28.234375 L 106.320312 40.710938 L 137.542969 40.710938 C 140.984375 40.710938 143.785156 43.511719 143.785156 46.949219 C 143.785156 48.617188 143.136719 50.179688 141.957031 51.359375 C 140.777344 52.539062 139.210938 53.1875 137.542969 53.1875 L 112.566406 53.183594 C 112.566406 53.183594 112.566406 53.183594 112.5625 53.183594 C 110.476562 53.183594 108.527344 54.222656 107.367188 55.964844 C 100.707031 65.941406 89.5625 71.902344 77.554688 71.902344 L 68.851562 71.902344 L 68.851562 84.378906 L 77.554688 84.378906 C 85.515625 84.378906 93.1875 82.421875 100.003906 78.84375 C 97.976562 84.707031 96.4375 90.726562 95.402344 96.855469 L 56.359375 96.855469 L 56.359375 48.839844 Z M 106.511719 109.332031 C 107.472656 93.921875 111.972656 78.996094 119.691406 65.660156 L 137.539062 65.664062 C 137.539062 65.664062 137.542969 65.664062 137.542969 65.664062 C 142.546875 65.664062 147.25 63.71875 150.789062 60.183594 C 154.328125 56.648438 156.277344 51.949219 156.277344 46.949219 C 156.277344 44.761719 155.894531 42.664062 155.199219 40.707031 L 174.671875 40.710938 L 197.566406 109.332031 Z M 6.402344 109.332031 L 94.019531 109.332031 C 93.902344 111.40625 93.828125 113.484375 93.828125 115.570312 C 93.828125 119.015625 96.625 121.808594 100.074219 121.808594 L 206.234375 121.808594 C 208.242188 121.808594 210.125 120.847656 211.296875 119.222656 C 212.472656 117.589844 212.792969 115.5 212.160156 113.597656 L 186.515625 36.75 C 190.910156 33.320312 193.746094 27.984375 193.746094 21.996094 C 193.746094 11.675781 185.339844 3.28125 175.011719 3.28125 L 111.859375 3.28125 C 86.746094 3.28125 63.4375 15.742188 49.507812 36.613281 L 46.773438 40.710938 L 6.402344 40.710938 C 2.953125 40.710938 0.160156 43.503906 0.160156 46.949219 L 0.160156 103.09375 C 0.160156 106.539062 2.953125 109.332031 6.402344 109.332031 "/>
</g>
<g clip-path="url(#clip2)" clip-rule="nonzero">
<path style=" stroke:none;fill-rule:nonzero;fill:rgb(0%,0%,0%);fill-opacity:1;" d="M 362.351562 209.851562 C 362.351562 230.757812 351.957031 250.160156 334.542969 261.757812 L 329.238281 265.292969 L 274.925781 265.292969 L 274.925781 233.9375 C 283.402344 230.949219 291.496094 226.953125 299.027344 222.023438 C 295.554688 228.75 293.660156 236.296875 293.660156 244.121094 L 293.660156 252.816406 L 306.148438 252.816406 L 306.148438 244.121094 C 306.148438 232.125 312.117188 220.988281 322.105469 214.335938 C 323.847656 213.179688 324.890625 211.230469 324.890625 209.144531 L 324.882812 184.195312 C 324.882812 182.527344 325.53125 180.960938 326.714844 179.78125 C 327.894531 178.605469 329.460938 177.953125 331.128906 177.953125 C 334.570312 177.953125 337.371094 180.753906 337.371094 184.191406 L 337.371094 215.386719 L 349.863281 215.386719 L 349.863281 190.429688 L 349.867188 190.429688 L 349.863281 146.761719 C 349.863281 143.324219 352.664062 140.523438 356.105469 140.523438 C 359.550781 140.523438 362.351562 143.324219 362.351562 146.761719 Z M 324.882812 358.867188 L 274.925781 358.867188 L 274.925781 277.769531 L 324.882812 277.769531 Z M 184.5625 212.753906 L 242.539062 131.671875 C 243.699219 130.050781 244.011719 127.96875 243.382812 126.074219 L 211.839844 31.542969 C 220.164062 29.347656 228.753906 28.234375 237.457031 28.234375 C 292.550781 28.234375 337.371094 73.011719 337.371094 128.046875 C 337.371094 141.046875 334.917969 153.625 330.089844 165.507812 C 325.476562 165.757812 321.171875 167.671875 317.878906 170.960938 C 314.34375 174.496094 312.394531 179.199219 312.394531 184.195312 L 312.398438 194.058594 C 293.398438 215.578125 266.273438 227.863281 237.457031 227.863281 C 218.566406 227.863281 200.40625 222.65625 184.5625 212.753906 Z M 356.105469 128.046875 C 353.910156 128.046875 351.808594 128.429688 349.847656 129.125 C 349.851562 128.765625 349.863281 128.40625 349.863281 128.046875 C 349.863281 66.128906 299.4375 15.757812 237.457031 15.757812 C 225.304688 15.757812 213.339844 17.6875 201.902344 21.492188 C 200.332031 22.011719 199.03125 23.136719 198.289062 24.617188 C 197.550781 26.097656 197.429688 27.8125 197.953125 29.378906 L 230.527344 127.007812 L 170.664062 210.730469 C 168.660156 213.53125 169.308594 217.425781 172.109375 219.429688 C 191.25 233.105469 213.84375 240.339844 237.457031 240.339844 C 245.957031 240.339844 254.328125 239.386719 262.4375 237.546875 L 262.4375 365.105469 C 262.4375 368.550781 265.234375 371.34375 268.679688 371.34375 L 331.128906 371.34375 C 334.578125 371.34375 337.371094 368.550781 337.371094 365.105469 L 337.371094 274.867188 L 341.472656 272.140625 C 362.367188 258.222656 374.839844 234.9375 374.839844 209.851562 L 374.839844 146.761719 C 374.839844 136.441406 366.4375 128.046875 356.105469 128.046875 "/>
</g>
<g clip-path="url(#clip3)" clip-rule="nonzero">
<path style=" stroke:none;fill-rule:nonzero;fill:rgb(0%,0%,0%);fill-opacity:1;" d="M 12.648438 298.480469 L 39.605469 260.777344 L 91.867188 286.882812 L 58.613281 358.867188 L 12.648438 358.867188 Z M 51.003906 153 C 54.53125 153 57.566406 155.628906 58.066406 159.117188 L 62.671875 191.316406 C 62.902344 192.949219 63.78125 194.429688 65.101562 195.421875 C 79.179688 205.96875 87.585938 222.757812 87.585938 240.339844 L 100.074219 240.339844 C 100.074219 221.597656 92.257812 203.59375 78.84375 190.742188 L 89.601562 182.683594 C 97.519531 202.167969 110.851562 219.355469 128.394531 231.902344 C 129.460938 232.667969 130.738281 233.070312 132.03125 233.070312 C 132.371094 233.070312 132.710938 233.042969 133.054688 232.984375 C 134.6875 232.714844 136.148438 231.804688 137.113281 230.457031 L 143.785156 221.125 L 143.785156 231.515625 L 98.84375 276.417969 L 43.871094 248.957031 L 43.871094 160.125 C 43.871094 156.195312 47.070312 153 51.003906 153 Z M 181.609375 146.761719 L 130.695312 217.964844 C 109.117188 200.382812 95.777344 174.484375 94.027344 146.761719 Z M 6.402344 371.34375 L 62.605469 371.34375 C 65.042969 371.34375 67.257812 369.929688 68.277344 367.71875 L 105.277344 287.632812 L 154.445312 238.511719 C 155.617188 237.339844 156.277344 235.753906 156.277344 234.101562 L 156.277344 203.65625 L 198.828125 144.148438 C 200.183594 142.25 200.367188 139.75 199.296875 137.671875 C 198.226562 135.59375 196.082031 134.285156 193.746094 134.285156 L 87.585938 134.285156 C 84.136719 134.285156 81.339844 137.078125 81.339844 140.523438 C 81.339844 150.675781 82.726562 160.664062 85.375 170.253906 L 73.539062 179.117188 L 70.425781 157.355469 C 69.058594 147.757812 60.707031 140.523438 51.003906 140.523438 C 40.183594 140.523438 31.382812 149.320312 31.382812 160.125 L 31.382812 250.816406 L 1.320312 292.859375 C 0.5625 293.914062 0.160156 295.183594 0.160156 296.484375 L 0.160156 365.105469 C 0.160156 368.550781 2.953125 371.34375 6.402344 371.34375 "/>
</g>
</g>
</svg>
