<svg xmlns="http://www.w3.org/2000/svg" enable-background="new 0 0 24 24" viewBox="0 0 24 24"><path fill="#303c42" d="M22,5h-1V4.5C21,4.224,20.776,4,20.5,4h-2C18.224,4,18,4.224,18,4.5V5h-1.672   c-0.395,0-0.781-0.16-1.061-0.439l-0.828-0.828C13.967,3.26,13.34,3,12.672,3H9.328C8.66,3,8.033,3.26,7.561,3.732L6.732,4.561   C6.453,4.84,6.066,5,5.672,5H2C0.897,5,0,5.897,0,7v12c0,1.103,0.897,2,2,2h20c1.103,0,2-0.897,2-2V7C24,5.897,23.103,5,22,5z"/><path fill="#5f6c72" d="M23,19c0,0.551-0.448,1-1,1H2c-0.552,0-1-0.449-1-1V7c0-0.551,0.448-1,1-1h3.672   C6.34,6,6.967,5.74,7.439,5.268l0.828-0.828C8.547,4.16,8.934,4,9.328,4h3.344c0.395,0,0.781,0.16,1.061,0.439l0.828,0.828   C15.033,5.74,15.66,6,16.328,6H22c0.552,0,1,0.449,1,1V19z"/><linearGradient id="a" x1="8.537" x2="19.208" y1="12.535" y2="23.206" gradientUnits="userSpaceOnUse"><stop offset="0" stop-opacity=".1"/><stop offset="1" stop-opacity="0"/></linearGradient><path fill="url(#a)" d="M14.876,8.18C14.95,8.267,15,8.376,15,8.5v9c0,0.276-0.224,0.5-0.5,0.5h-11   c-0.119,0-0.224-0.047-0.31-0.117L5.307,20H22c0.552,0,1-0.449,1-1v-2.696L14.876,8.18z"/><path fill="#fff" d="M1.5 19.5v-12c0-.551.448-1 1-1h3.672c.668 0 1.295-.26 1.768-.732l.828-.828C9.047 4.66 9.434 4.5 9.828 4.5h3.344c.395 0 .781.16 1.061.439l-.5-.5C13.453 4.16 13.066 4 12.672 4H9.328C8.934 4 8.547 4.16 8.268 4.439L7.439 5.268C6.967 5.74 6.34 6 5.672 6H2C1.448 6 1 6.449 1 7v12c0 .405.245.751.592.908C1.535 19.783 1.5 19.646 1.5 19.5zM16.828 6.5H22.5c.146 0 .283.035.408.092C22.751 6.245 22.405 6 22 6h-5.672c-.668 0-1.295-.26-1.768-.732l.5.5C15.533 6.24 16.16 6.5 16.828 6.5z" opacity=".2"/><path fill="#f2f2f2" d="M9.5,7h3C12.776,7,13,6.776,13,6.5v-1C13,5.224,12.776,5,12.5,5h-3C9.224,5,9,5.224,9,5.5v1   C9,6.776,9.224,7,9.5,7z"/><path fill="#303c42" d="M14.5,8h-11C3.224,8,3,8.224,3,8.5v9C3,17.776,3.224,18,3.5,18h11c0.276,0,0.5-0.224,0.5-0.5v-9   C15,8.224,14.776,8,14.5,8z"/><path fill="#f2f2f2" d="M14,9v5.293l-2.646-2.646c-0.195-0.195-0.512-0.195-0.707,0L8,14.293l-1.146-1.146   c-0.195-0.195-0.512-0.195-0.707,0L4,15.293V9H14z"/><path fill="#7cb342" d="M4,17v-0.293l2.5-2.5l1.646,1.646c0.195,0.195,0.512,0.195,0.707,0s0.195-0.512,0-0.707L8.707,15   L11,12.707l3,3V17H4z"/><circle cx="8" cy="11" r="1" fill="#303c42"/><circle cx="17" cy="10" r="1" fill="#303c42"/><circle cx="20" cy="10" r="1" fill="#303c42"/><path d="M17.598 9.22c.175.18.285.424.285.694 0 .551-.448 1-1 1-.229 0-.429-.09-.598-.22C16.466 10.882 16.719 11 17 11c.552 0 1-.449 1-1C18 9.677 17.836 9.403 17.598 9.22zM20.598 9.22c.175.18.285.424.285.694 0 .551-.448 1-1 1-.229 0-.429-.09-.598-.22C19.466 10.882 19.719 11 20 11c.552 0 1-.449 1-1C21 9.677 20.836 9.403 20.598 9.22z" opacity=".1"/><circle cx="18.5" cy="15.5" r="2.5" fill="#303c42"/><circle cx="18.5" cy="15.5" r="1.5" fill="#78909c"/><path fill="#fff" d="M17.281,15.781c0-0.827,0.673-1.5,1.5-1.5c0.342,0,0.654,0.119,0.906,0.313   C19.413,14.235,18.985,14,18.5,14c-0.827,0-1.5,0.673-1.5,1.5c0,0.485,0.235,0.913,0.594,1.187   C17.401,16.435,17.281,16.123,17.281,15.781z" opacity=".2"/><linearGradient id="b" x1="-.297" x2="24.352" y1="7.193" y2="18.687" gradientUnits="userSpaceOnUse"><stop offset="0" stop-color="#fff" stop-opacity=".2"/><stop offset="1" stop-color="#fff" stop-opacity="0"/></linearGradient><path fill="url(#b)" d="M22,5h-1V4.5C21,4.224,20.776,4,20.5,4h-2C18.224,4,18,4.224,18,4.5V5h-1.672   c-0.395,0-0.781-0.16-1.061-0.439l-0.828-0.828C13.967,3.26,13.34,3,12.672,3H9.328C8.66,3,8.033,3.26,7.561,3.732L6.732,4.561   C6.453,4.84,6.066,5,5.672,5H2C0.897,5,0,5.897,0,7v12c0,1.103,0.897,2,2,2h20c1.103,0,2-0.897,2-2V7C24,5.897,23.103,5,22,5z"/></svg>