<svg xmlns="http://www.w3.org/2000/svg" viewBox="0 0 512 512"><path fill="#ffa96b" d="M476,180H36a15,15,0,0,0-15,15V457a55.06,55.06,0,0,0,55,55H436a55.06,55.06,0,0,0,55-55V195A15,15,0,0,0,476,180Z"/><path fill="#ff9346" d="M456,492H96a55.06,55.06,0,0,1-55-55V180H36a15,15,0,0,0-15,15V457a55.06,55.06,0,0,0,55,55H436a55,55,0,0,0,47.56-27.44A54.62,54.62,0,0,1,456,492Z"/><path fill="#ff9346" d="M196 444a15 15 0 0 1-10.61-4.4l-80-80a15 15 0 0 1 0-21.21l80-80a15 15 0 0 1 21.22 21.21L137.21 349l69.4 69.39A15 15 0 0 1 196 444zM336 444a15 15 0 0 1-10.61-25.61L394.79 349l-69.4-69.4a15 15 0 0 1 21.22-21.21l80 80a15 15 0 0 1 0 21.21l-80 80A15 15 0 0 1 336 444zM246 444a15.32 15.32 0 0 1-3.65-.45 15 15 0 0 1-10.91-18.19l40-160a15 15 0 1 1 29.1 7.27l-40 160A15 15 0 0 1 246 444z"/><path fill="#faf7f5" d="M186 444a15 15 0 0 1-10.61-4.4l-80-80a15 15 0 0 1 0-21.21l80-80a15 15 0 0 1 21.22 21.21L127.21 349l69.4 69.39A15 15 0 0 1 186 444zM326 444a15 15 0 0 1-10.61-25.61L384.79 349l-69.4-69.4a15 15 0 0 1 21.22-21.21l80 80a15 15 0 0 1 0 21.21l-80 80A15 15 0 0 1 326 444zM236 444a15.32 15.32 0 0 1-3.65-.45 15 15 0 0 1-10.91-18.19l40-160a15 15 0 1 1 29.1 7.27l-40 160A15 15 0 0 1 236 444z"/><path fill="#f5eeec" d="M200.35 264.65a15 15 0 0 0-15 3.74l-80 80a15 15 0 0 0 0 21.21l-10-10a15 15 0 0 1 0-21.21l80-80a15 15 0 0 1 21.22 0A14.8 14.8 0 0 1 200.35 264.65zM315.39 279.6a15 15 0 0 1 21.22-21.21l10 10a15 15 0 0 0-21.22 21.21zM325.39 428.39a15 15 0 0 0-3.74 15 15 15 0 0 1-6.26-25L384.79 349l10 10zM290.35 264.64l-.71-.2a15 15 0 0 0-18.19 10.92l-40 160a14.9 14.9 0 0 0 .2 8 15 15 0 0 1-10.2-18l40-160a15 15 0 0 1 28.9-.72z"/><rect width="512" height="210" fill="#d5ea79" rx="35" ry="35"/><path fill="#cbe558" d="M20,195V55A35,35,0,0,1,55,20H497a34.66,34.66,0,0,1,12.63,2.37A35.05,35.05,0,0,0,477,0H35A35,35,0,0,0,0,35V175a35.05,35.05,0,0,0,22.37,32.63A34.66,34.66,0,0,1,20,195Z"/></svg>