<svg xmlns="http://www.w3.org/2000/svg" data-name="Layer 1" viewBox="0 0 128 128"><path fill="#59bfc1" d="M100.33331,83V77.41663s-16-1.5-16,0-22.70831,0-22.70831,0V82.875s9.875,3,7.875,12-12.875,7.5-12.875,7.5H39.5l-9.125-13.75,3.26782-32.46039A9.84877,9.84877,0,0,1,29.58807,42.769L19.5,38.08331l-2.5,4.25L17.58331,53.25,24,54.91663S14.83331,67.58331,17.83331,82s1.25,11.08331,1.25,11.08331S4.91669,90.75,2.41669,107.25L5.25,108.91663s13.41669-9.33331,25.5,3.5H79.66669l1.25-3.58331H113S115.58331,95.16663,100.33331,83Z"/><path fill="#fc785e" d="M71.285,25.23407A15.96867,15.96867,0,0,1,51.35089,29.0484L34.125,46.375l4,4.875,17.75-14.125L61,55,45.125,61l.625,34,3.875,4,5.625-5.125v-26.5H83.875L85,61.25Z"/><path fill="#2d4356" d="M59,3A12,12,0,1,0,71,15,12.00952,12.00952,0,0,0,59,3Zm0,20a8,8,0,1,1,8-8A8.01066,8.01066,0,0,1,59,23Z"/><path fill="#e1ebf4" d="M67,15a8,8,0,1,1-8-8A8.01066,8.01066,0,0,1,67,15Z"/><path fill="#2d4356" d="M126,70a2.00587,2.00587,0,0,0-2,2v4h-4V42a3.99887,3.99887,0,0,0-4-4H94a3.99887,3.99887,0,0,0-4,4V76H86V70a3.9973,3.9973,0,0,0-.55-2A3.99765,3.99765,0,0,0,86,66V63a4.02227,4.02227,0,0,0-.2-1.24l-12.04-37a3.94311,3.94311,0,0,0-1.01-1.62,16.07742,16.07742,0,0,1-2.63,3.34L82,63v3H53V93a3,3,0,0,1-6,0V62l17.67-6L56.81,34.21,39.49,48.91a1.89188,1.89188,0,0,1-1.2.44,1.84894,1.84894,0,0,1-1.38-.62l-.03-.03a1.87156,1.87156,0,0,1,.06-2.56L52.81,30l.41-.1a15.80247,15.80247,0,0,1-3.83-2.14L34.09,43.33a5.88284,5.88284,0,0,0,7.98,8.63L55,40.99l4.52,12.53L45.71,58.21A4.00537,4.00537,0,0,0,43,62V93a7,7,0,0,0,14,0V75.1c1.57,1.88,2.89,3.42,2.97,3.51a3.91972,3.91972,0,0,0,1.03.83v4.03c.16.08.32.17.49.24.53.22,5.51,2.6,5.51,9.45,0,5.47-3.82,6.61-5.28,6.84H41.04l-7.9-10.91L36.59,57.5a8.62566,8.62566,0,0,0,1.15-.18,9.87972,9.87972,0,0,1-4.97-1.68L29,90.19,39,104H62s9-.93,9-10.84A14.07468,14.07468,0,0,0,63,80H97.5l.5,4.24A24.83036,24.83036,0,0,1,112,107H79v4H31.78A22.287,22.287,0,0,0,15.22,104,30.06576,30.06576,0,0,0,4,106.33S6.68,95.14,16.1,95.14a15.102,15.102,0,0,1,4.93005.91c.56995.2,1.1.41,1.62.63,0,0-10.26-22.87,5.35-43.68H21a2.01242,2.01242,0,0,1-2-2V42.98A1.99447,1.99447,0,0,1,21,41a2.09863,2.09863,0,0,1,.96.24l6.8,3.68a9.55914,9.55914,0,0,1,1.78-3.58l-6.68-3.61a5.99813,5.99813,0,0,0-7.01.93A5.92878,5.92878,0,0,0,15,42.98V51a6.00386,6.00386,0,0,0,5.73,5.99c-7.06,13.29-5.84,26.38-4.02,34.17-.2-.01-.41-.02-.61-.02C6.18,91.14,1.38,100.1.11,105.4a3.96477,3.96477,0,0,0,1.28,3.95,3.97562,3.97562,0,0,0,2.61.98c.11,0,.21-.02.32-.03A11.99455,11.99455,0,1,0,28,113a.91462.91462,0,0,0-.01-.16,9.224,9.224,0,0,1,.7.7A4.009,4.009,0,0,0,31.78,115H79a3.99891,3.99891,0,0,0,4-4h4.18a11.02146,11.02146,0,0,0-.18,2,12,12,0,0,0,24,0,11.02146,11.02146,0,0,0-.18-2H112a3.99891,3.99891,0,0,0,4-4c0-.5-.01-.98-.03-1.46a7.973,7.973,0,0,0,5.11-9.96l-1.51-4.87a7.96878,7.96878,0,0,0-7.64-5.63H107a4.88061,4.88061,0,0,0-.55.05,31.20948,31.20948,0,0,0-4.72-3.45l-.2-1.68H126a2.00591,2.00591,0,0,0,2-2V72A2.00587,2.00587,0,0,0,126,70ZM82,76H63s-2.72-3.16-5-6H82ZM16,121a7.98109,7.98109,0,0,1-6.8-12.19,23.83109,23.83109,0,0,1,6.02-.81,19.21529,19.21529,0,0,1,8.08,1.75A7.98133,7.98133,0,0,1,16,121Zm83,0a7.99782,7.99782,0,0,1-8-8,8.24028,8.24028,0,0,1,.26-2h15.48a8.24028,8.24028,0,0,1,.26,2A7.99782,7.99782,0,0,1,99,121Zm12.93-31.92a3.9997,3.9997,0,0,1,3.82,2.82l1.51,4.87a3.99585,3.99585,0,0,1-1.74,4.6,27.83415,27.83415,0,0,0-5.39-12.29ZM102,42h6v6h-6Zm14,34H94V42h4v6a3.99891,3.99891,0,0,0,4,4h6a3.99891,3.99891,0,0,0,4-4V42h4Z"/><path fill="#fc785e" d="M115.52,101.37a27.83415,27.83415,0,0,0-5.39-12.29h1.8a3.9997,3.9997,0,0,1,3.82,2.82l1.51,4.87A3.99585,3.99585,0,0,1,115.52,101.37Z"/><path fill="#2d4356" d="M83.14166,53.59076,73.76,24.76a3.94311,3.94311,0,0,0-1.01-1.62,16.07742,16.07742,0,0,1-2.63,3.34l8.81915,27.11078Z"/><path fill="#e1ebf4" d="M82,70v6H63s-2.72-3.16-5-6Z"/><rect width="6" height="6" x="102" y="42" fill="#ffdb80"/><path fill="#d68751" d="M116 42V76H94V42h4v6a3.99891 3.99891 0 0 0 4 4h6a3.99891 3.99891 0 0 0 4-4V42zM107 113a8 8 0 0 1-16 0 8.24028 8.24028 0 0 1 .26-2h15.48A8.24028 8.24028 0 0 1 107 113zM24 113a8 8 0 1 1-14.8-4.19 23.83109 23.83109 0 0 1 6.02-.81 19.21529 19.21529 0 0 1 8.08 1.75A7.99216 7.99216 0 0 1 24 113z"/><path fill="#d6f2f2" d="M28.44 46.75l-6.48-3.51A2.099 2.099 0 0 0 21 43a1.99449 1.99449 0 0 0-2 1.98v-2A1.99449 1.99449 0 0 1 21 41a2.099 2.099 0 0 1 .96.24l6.79 3.67zM22.65 98.68c-.52-.22-1.05-.43-1.62-.63A15.102 15.102 0 0 0 16.1 97.14c-6.67 0-9.96 5.62-11.31 8.89-.25995.09-.52.18994-.79.3 0 0 2.68-11.19 12.1-11.19a15.102 15.102 0 0 1 4.93005.91c.25.09.5.18.74.28C22.27 97.84 22.65 98.68 22.65 98.68z" opacity=".3"/><path fill="#9fa5aa" d="M67,15a8,8,0,0,1-16,0,8.26623,8.26623,0,0,1,.06-1,8.00312,8.00312,0,0,0,15.88,0A8.26623,8.26623,0,0,1,67,15Z" opacity=".5"/><path fill="#fff" d="M67,15a8.26623,8.26623,0,0,1-.06,1,8.00312,8.00312,0,0,0-15.88,0A8.26623,8.26623,0,0,1,51,15a8,8,0,0,1,16,0Z" opacity=".5"/><rect width="6" height="2" x="102" y="46" fill="#ad9359" opacity=".45"/><rect width="4" height="2" x="94" y="42" fill="#e5d0c3" opacity=".3"/><rect width="4" height="2" x="112" y="42" fill="#e5d0c3" opacity=".3"/><rect width="6" height="2" x="102" y="42" fill="#f9edd2" opacity=".5"/><rect width="22" height="2" x="94" y="74" fill="#72492d" opacity=".4"/><rect width="29" height="2" x="53" y="64" fill="#a54b3f" opacity=".5"/><path fill="#a54b3f" d="M53,91v2a3,3,0,0,1-6,0V91a3,3,0,0,0,6,0Z" opacity=".5"/><path fill="#18665c" d="M79 109v2H31.78A22.287 22.287 0 0 0 15.22 104 30.066 30.066 0 0 0 4 106.33a17.2863 17.2863 0 0 1 .79-2.3A29.473 29.473 0 0 1 15.22 102 22.287 22.287 0 0 1 31.78 109zM112 107H79v-2h32.93C111.98 105.65 112 106.32 112 107z" opacity=".3"/><path fill="#72492d" d="M107 113a8 8 0 0 1-16 0 6.37138 6.37138 0 0 1 .07-.98 7.99464 7.99464 0 0 0 15.86 0A6.37138 6.37138 0 0 1 107 113zM24 113a8 8 0 1 1-15.94-.98 8.00107 8.00107 0 0 0 15.87.01A6.24161 6.24161 0 0 1 24 113z" opacity=".4"/></svg>