<svg xmlns="http://www.w3.org/2000/svg" viewBox="0 0 59.76 59.42"><g data-name="Layer 2"><g data-name="Layer 1"><path fill="#6cffc0" d="M35.86 17.57l-5.13 5.13-1-5.27a5 5 0 0 0-5.83-4 5 5 0 0 0-4 5.83l2.24 12-6.8 6.8a5 5 0 0 0 0 7.07l12.74 12.74a5 5 0 0 0 7.07 0l20.51-20.5a14 14 0 0 0 0-19.8 14 14 0 0 0-19.8 0z"/><path fill="none" stroke="#4b4668" stroke-linecap="round" stroke-linejoin="round" stroke-width="3" d="M30.2 16.15l-5.13 5.13-1-5.27a5 5 0 00-5.83-4 5 5 0 00-4 5.83l2.24 12-6.8 6.8a5 5 0 000 7.07l12.74 12.75a5 5 0 007.07 0L50 36a14 14 0 000-19.8 14 14 0 00-19.8-.05zM26.67 49.39l11.31-11.32M23.13 43.02l11.31-11.31M37.27 28.88l.71-.71M23.84 32.42l-7.07 7.07M27.37 28.88"/><g opacity=".2"><path fill="none" stroke="#4b4668" stroke-linecap="round" stroke-linejoin="round" stroke-width="3" d="M55 45.92v5M57.5 48.42h-5"/></g><circle cx="28.65" cy="4" r="2.5" fill="none" stroke="#6cffc0" stroke-linecap="round" stroke-linejoin="round" stroke-width="3" opacity=".5"/><g opacity=".2"><path fill="none" stroke="#4b4668" stroke-linecap="round" stroke-linejoin="round" stroke-width="3" d="M4 21.92v5M6.5 24.42h-5"/></g></g></g></svg>