<svg xmlns="http://www.w3.org/2000/svg" width="512" height="512" enable-background="new 0 0 512 512" viewBox="0 0 512 512"><circle cx="301.77" cy="286.922" r="155.831" fill="#F5EDFF"/><circle cx="414.16" cy="106.934" r="23.481" fill="#F5EDFF"/><circle cx="93.682" cy="108.531" r="39.282" fill="#F5EDFF"/><polygon fill="#FFC845" points="419.597 324.506 284.272 395.457 284.272 262.672 419.597 191.721"/><polygon fill="#FF9903" points="404.606 199.58 404.606 308.129 284.272 371.221 284.272 395.457 419.597 324.506 419.597 191.721"/><polygon fill="#FFE9C5" points="294.886 269.842 419.597 204.453 419.597 191.721 284.272 262.672 284.272 395.457 294.886 389.893"/><polygon fill="#FFC845" points="136.175 328.092 269.284 397.883 269.284 267.27 136.175 197.479"/><polygon fill="#FF9903" points="255.831 260.215 255.831 371.783 136.175 309.045 136.175 328.092 269.284 397.883 269.284 267.27"/><polygon fill="#FFE9C5" points="143.675 211.645 269.284 277.504 269.284 267.27 136.175 197.479 136.175 328.092 143.675 332.025"/><polygon fill="#FFC845" points="270.534 111.645 136.425 182.527 270.534 252.842 404.644 181.961"/><polygon fill="#FF9903" points="270.534 235.695 152.712 173.92 136.425 182.527 270.534 252.842 404.644 181.961 388.356 173.422"/><polygon fill="#FFE9C5" points="271.784 123.131 394.356 187.396 404.644 181.961 270.534 111.645 136.425 182.527 147.962 188.574"/><polygon fill="#FF464C" points="132.964 220.777 176.163 244.676 176.163 268.113 132.964 244.215"/><polygon fill="#FF8089" points="137.675 229.037 176.163 250.328 176.163 244.676 132.964 220.777 132.964 244.215 137.675 246.822"/><polygon fill="#61CCFB" points="415.013 271.58 415.013 297.205 361.298 326.281 361.298 300.164"/><polygon fill="#99E5FF" points="367.964 303.406 415.013 278.369 415.013 271.58 361.298 300.164 361.298 326.281 367.964 322.674"/><g><path fill="#7B0C96" d="M270.534 332.479c3.451 0 6.25-2.797 6.25-6.25v-7.916c0-3.451-2.799-6.25-6.25-6.25-3.453 0-6.25 2.799-6.25 6.25v7.916C264.284 329.682 267.081 332.479 270.534 332.479zM189.919 348.957l-5.293-2.775c-3.055-1.604-6.832-.426-8.438 2.631-1.604 3.057-.424 6.836 2.633 8.438l5.293 2.777c.926.484 1.918.715 2.898.715 2.248 0 4.422-1.217 5.539-3.348C194.155 354.338 192.976 350.561 189.919 348.957zM335.755 137.928l6.988 3.664c.926.486 1.92.717 2.898.717 2.248 0 4.422-1.219 5.539-3.35 1.604-3.057.426-6.834-2.631-8.438l-6.99-3.664c-3.055-1.604-6.834-.426-8.438 2.633C331.519 132.547 332.698 136.324 335.755 137.928z"/><path fill="#7B0C96" d="M424.597,174.707c-0.004-2.32-1.293-4.447-3.35-5.525l-53.428-28.012
			c-3.055-1.602-6.834-0.426-8.438,2.631c-1.604,3.059-0.424,6.834,2.633,8.438l42.914,22.502l-58.574,30.959L211.97,135.24
			l58.576-30.959l44.754,23.465c3.057,1.602,6.836,0.426,8.438-2.631c1.605-3.057,0.426-6.836-2.631-8.438l-47.672-24.996
			c-1.822-0.955-4.002-0.951-5.82,0.01l-147.813,78.125c-0.051,0.027-0.096,0.063-0.146,0.09c-0.055,0.031-0.113,0.055-0.168,0.088
			c-0.078,0.049-0.148,0.105-0.225,0.156c-0.104,0.07-0.207,0.139-0.307,0.215c-0.125,0.094-0.24,0.193-0.357,0.295
			c-0.09,0.08-0.182,0.158-0.268,0.244c-0.111,0.109-0.215,0.227-0.316,0.344c-0.078,0.09-0.156,0.176-0.229,0.27
			c-0.096,0.125-0.184,0.256-0.27,0.387c-0.064,0.098-0.131,0.191-0.188,0.291c-0.082,0.139-0.15,0.283-0.223,0.43
			c-0.049,0.1-0.102,0.197-0.145,0.301c-0.064,0.154-0.115,0.316-0.168,0.477c-0.033,0.1-0.072,0.197-0.1,0.299
			c-0.051,0.184-0.084,0.371-0.117,0.561c-0.014,0.084-0.037,0.166-0.049,0.25c-0.037,0.273-0.057,0.551-0.057,0.83v28.166v31.875
			v85c0,2.324,1.289,4.455,3.348,5.535l40.807,21.396c0.928,0.486,1.92,0.717,2.898,0.717c2.25,0,4.422-1.219,5.539-3.35
			c1.605-3.057,0.426-6.834-2.631-8.438l-37.461-19.643v-70.619l49.475,27.369c0.941,0.521,1.984,0.781,3.025,0.781
			c1.098,0,2.195-0.289,3.174-0.867c1.906-1.123,3.076-3.17,3.076-5.383v-31.875c0-2.273-1.236-4.367-3.225-5.469l-55.525-30.717
			v-14.145l135.313,70.945v41.059c0,3.451,2.797,6.25,6.25,6.25c3.451,0,6.25-2.799,6.25-6.25v-41.059l135.313-70.945v68.221
			l-64.811,34.486c-2.041,1.086-3.314,3.207-3.314,5.518v33.125c0,2.201,1.158,4.242,3.051,5.369
			c0.984,0.586,2.09,0.881,3.199,0.881c1.023,0,2.045-0.25,2.975-0.754l58.9-31.881v15.959l-135.313,70.947v-40.486
			c0-3.451-2.799-6.25-6.25-6.25c-3.453,0-6.25,2.799-6.25,6.25v40.486l-54.883-28.775c-3.057-1.598-6.832-0.426-8.438,2.633
			c-1.604,3.057-0.424,6.836,2.635,8.438l64.033,33.574c0.086,0.047,0.178,0.078,0.266,0.121c0.102,0.045,0.199,0.094,0.303,0.135
			c0.154,0.063,0.311,0.113,0.469,0.162c0.096,0.031,0.191,0.064,0.289,0.09c0.172,0.045,0.346,0.076,0.52,0.105
			c0.088,0.016,0.178,0.039,0.268,0.049c0.223,0.029,0.449,0.041,0.674,0.047c0.041,0,0.08,0.008,0.119,0.008
			c0.268,0,0.535-0.021,0.803-0.057c0.061-0.008,0.121-0.021,0.184-0.033c0.199-0.031,0.398-0.07,0.596-0.121
			c0.092-0.023,0.182-0.057,0.273-0.086c0.162-0.051,0.326-0.104,0.488-0.17c0.1-0.041,0.199-0.088,0.297-0.135
			c0.086-0.039,0.174-0.07,0.258-0.115l147.813-77.5c2.059-1.08,3.348-3.211,3.348-5.535v-30.23v-32.5v-82.311
			c0-0.107-0.016-0.215-0.021-0.322C424.581,174.916,424.597,174.813,424.597,174.707z M332.946,212.785l-62.424,32.994
			L136.14,175.32l62.424-32.994L332.946,212.785z M175.222,239.693v17.59l-46.25-25.586v-17.588L175.222,239.693z M356.472,316.537
			v-18.881l55.625-29.6v18.371L356.472,316.537z"/></g></svg>