<svg xmlns="http://www.w3.org/2000/svg" width="32" height="32" viewBox="0 0 32 32"><g transform="translate(-4040.162 -1785.966)"><path fill="#fc987a" d="m 4069.4785,1801.841 a 12.375,12.375 0 0 1 -12.375,12.375 12.375,12.375 0 0 1 -12.375,-12.375 12.375,12.375 0 0 1 12.375,-12.375 12.375,12.375 0 0 1 12.375,12.375 z"/><g fill="#3a3640" transform="matrix(.99997 0 0 .99988 465.057 -384.456)"><path style="line-height:normal;text-indent:0;text-align:start;text-decoration-line:none;text-decoration-style:solid;text-decoration-color:#000;text-transform:none;white-space:normal;isolation:auto;mix-blend-mode:normal;solid-color:#000;solid-opacity:1" fill-rule="evenodd" d="M3588.6367 2192.3164a.50005.50005 0 00-.3828.1777c-1.2272 1.4204-2.3859 2.7631-3.6621 4.2403-.4864.5633-.4547 1.4177.072 1.9433l.092.092c.5252.5257 1.3786.5573 1.9414.072l5.4258-4.6895a.50059198.50059198 0 10-.6543-.7578l-5.4258 4.6895c-.173.1492-.4204.1402-.582-.021l-.092-.092c-.1622-.1618-.1713-.4105-.021-.584 1.2762-1.4772 2.4349-2.8179 3.6621-4.2383a.50005.50005 0 00-.375-.832zM3594.4375 2186.3691l-.707.7071 2.623 2.625.707-.7071zM3593.125 2187.6816l-.707.7071 2.623 2.625.707-.7071zM3603.0938 2178.1855a.50005.50005 0 00-.4043.2207c0 0-.1566.2288-.3653.502-.2086.2732-.486.5929-.6308.709-.2977.2386-.7522.3909-1.2637.5683-.511.1773-1.0924.3905-1.5313.8926-.3204.3672-.447.8247-.5546 1.2227-.1077.3979-.1622.7344-.1622.7344l.9883.1582c0 0 .046-.2903.1387-.6329.093-.3425.2655-.7387.3418-.8261.2337-.2679.6205-.4346 1.1074-.6035.4869-.169 1.0599-.3311 1.5606-.7325.1776-.1423.317-.3372.4707-.5195.049.2836.09.3021.1074.6816.044.9645-.114 2.0632-.7637 2.754-.1511.1606-.6714.4564-1.125.6484-.4536.192-.8437.3144-.8437.3144l.3027.9532c0 0 .4286-.1356.9297-.3477.501-.2121 1.0726-.4658 1.4648-.8828.9412-1.0007 1.0854-2.3875 1.0352-3.4863-.05-1.0988-.3145-1.9727-.3145-1.9727a.50005.50005 0 00-.4882-.3555z" color="#000" enable-background="accumulate" font-family="sans-serif" font-weight="400" overflow="visible"/><path style="line-height:normal;text-indent:0;text-align:start;text-decoration-line:none;text-decoration-style:solid;text-decoration-color:#000;text-transform:none;white-space:normal;isolation:auto;mix-blend-mode:normal;solid-color:#000;solid-opacity:1" fill-rule="evenodd" d="M3598.5039 2182.4512a.50005.50005 0 00-.2988.1054l-1.5449 1.2012c-.975.7586-1.8963 1.5764-2.7735 2.4356-.4386.4296-.8651.8678-1.2832 1.3164-.2092.2244-.4167.4514-.6211.6797a.50068843.50068843 0 10.7461.6679c.2002-.2236.4011-.4449.6055-.664.4087-.4385.8271-.8692 1.2539-1.2872.8536-.8361 1.7445-1.6271 2.6855-2.3593l1.1973-.9297 1.3418 1.3418-.9297 1.1992c-.734.9439-1.5185 1.8461-2.3496 2.7031-.4155.4285-.8428.8446-1.2812 1.25-.2192.2027-.4413.4028-.6661.5996a.50005.50005 0 10.6582.752c.2316-.2028.4617-.4083.6875-.6172.4518-.4177.8922-.8475 1.3204-1.2891.8563-.883 1.6635-1.8124 2.4199-2.7851l1.2011-1.5469a.50005.50005 0 00-.041-.6601l-1.9668-1.9668a.50005.50005 0 00-.3613-.1465zM3584.541 2181.7441l-.7695.6407 3.4062 4.0859 10.5254 10.5254c.277.277.277.7113 0 .9883-.277.277-.7112.277-.9883 0l-10.5253-10.5254-4.086-3.4063-.6406.7696 4.0508 3.375 10.4941 10.4941c.5616.5617 1.394.5419 2.0469.1465.0005-.0003 0 .0003 0 0l.2071 0 .1465-.1465c.6591-.6592.6591-1.7432 0-2.4023l-10.4942-10.4942z" color="#000" enable-background="accumulate" font-family="sans-serif" font-weight="400" overflow="visible"/><path style="line-height:normal;text-indent:0;text-align:start;text-decoration-line:none;text-decoration-style:solid;text-decoration-color:#000;text-transform:none;white-space:normal;isolation:auto;mix-blend-mode:normal;solid-color:#000;solid-opacity:1" fill-rule="evenodd" d="M3587.1934 2185.7793l-1.6954 1.6953.7071.707 1.6953-1.6953zM3595.5 2194.4238l-1.6953 1.6953.707.7071 1.6953-1.6953zM3580.3398 2178.2188l-.021 0-.018.01c-1.1975.2113-2.1383 1.1521-2.3496 2.3496l-.01.018 0 .022c-.1617.9162.2175 1.8459.9746 2.3867l2.9219 2.0859.2988-.2988 2.6758-2.6758-2.0859-2.9199c-.5408-.757-1.4705-1.1382-2.3868-.9765zm.1758.9863c.5376-.093 1.0792.1262 1.3965.5703l1.5938 2.2324-1.7774 1.7774-2.2305-1.5938c-.4447-.3176-.6642-.8602-.5703-1.3984l0-.02 0-.021c.1389-.787.7521-1.3983 1.5391-1.5372l.019 0z" color="#000" enable-background="accumulate" font-family="sans-serif" font-weight="400" overflow="visible"/><path style="line-height:normal;text-indent:0;text-align:start;text-decoration-line:none;text-decoration-style:solid;text-decoration-color:#000;text-transform:none;white-space:normal;isolation:auto;mix-blend-mode:normal;solid-color:#000;solid-opacity:1" fill-rule="evenodd" d="m 3580.418,2180.6719 -0.6582,0.7519 2.7109,2.3731 0.6582,-0.752 z" color="#000" enable-background="accumulate" font-family="sans-serif" font-weight="400" overflow="visible"/></g><path style="line-height:normal;text-indent:0;text-align:start;text-decoration-line:none;text-decoration-style:solid;text-decoration-color:#000;text-transform:none;white-space:normal;isolation:auto;mix-blend-mode:normal;solid-color:#000;solid-opacity:1" fill="#3a3640" fill-rule="evenodd" d="M4068.4122 1793.6267c.054.054.091.1237.113.1971 0 0 .2637.8735.314 1.9722.05 1.0989-.094 2.4851-1.0353 3.4859-.3921.4169-.9633.6708-1.4643.8829-.501.2121-.9289.3474-.9289.3474l-.3024-.9535c0 0 .3894-.1232.843-.3153.4537-.192.9725-.4865 1.1236-.6471.6497-.6908.8102-1.7909.7662-2.7554-.017-.3798-.023-.3591-.069-.6857-.1537.1825-.3326.3817-.5105.5242-.5007.4014-1.0749.5629-1.5618.7318-.4869.1689-.8732.3371-1.1069.6049-.076.088-.2495.4841-.3421.8266-.093.3425-.1384.6331-.1384.6331l-.9877-.1602c0 0 .055-.3364.1627-.7344.1076-.3979.2331-.8554.5535-1.2226.439-.5031 1.0208-.7145 1.5322-.8919.5115-.1774.967-.3292 1.2645-.5677.1449-.1161.423-.4356.6317-.7087.2086-.2732.3626-.5037.3626-.5037.1802-.2663.5613-.2957.7802-.06zM4057.0943 1808.6925a.49997001.50011212 0 01-.026.7408l-5.4258 4.6891c-.5627.4851-1.4157.4525-1.9409-.073l-.092-.092c-.5256-.5258-.5578-1.38-.072-1.9428 1.2762-1.4772 2.4345-2.8189 3.6616-4.2394a.49997001.50011212 0 11.7558.6537c-1.2271 1.4204-2.3854 2.7621-3.6616 4.2393-.1498.1734-.1404.4213.022.5831l.092.092c.1616.1618.4084.1698.5816.021l5.4258-4.6892a.49997001.50011212 0 01.6803.017zM4062.0037 1804.2763l-.7059.7062-2.6239-2.6246.706-.7062zM4060.6918 1805.5886l-.7059.7062-2.6239-2.6246.706-.7062z" color="#000" enable-background="accumulate" font-family="sans-serif" font-weight="400" overflow="visible"/><path style="line-height:normal;text-indent:0;text-align:start;text-decoration-line:none;text-decoration-style:solid;text-decoration-color:#000;text-transform:none;white-space:normal;isolation:auto;mix-blend-mode:normal;solid-color:#000;solid-opacity:1" fill="#3a3640" fill-rule="evenodd" d="M4065.7755 1799.8448a.49997001.50011212 0 01.041.6612l-1.2005 1.5469c-.7563.9727-1.5651 1.9031-2.4214 2.786-.4281.4415-.8679.8715-1.3196 1.2893-.2258.2088-.4552.415-.6867.6177a.50029359.50043579 0 11-.6587-.7534c.2247-.1968.447-.3971.6663-.5998.4384-.4054.8656-.8223 1.2812-1.2508.831-.8569 1.6144-1.7589 2.3484-2.7028l.9313-1.1982-1.3426-1.343-1.1967.9304c-.941.7321-1.8343 1.5244-2.6878 2.3605-.4269.4182-.8431.847-1.2517 1.2854-.2044.2193-.4071.4403-.6074.6639a.49997001.50011212 0 11-.7446-.6674c.2045-.2283.411-.4549.6201-.6793.4182-.4485.8452-.8877 1.2838-1.3174.877-.8591 1.7975-1.6764 2.7724-2.4349l1.5464-1.2008a.49997001.50011212 0 01.6598.042zM4047.0471 1799.3344l-.6394.7696 4.0509 3.3757 10.4923 10.4926c.6592.6592 1.7431.6592 2.4022 0 .6592-.6592.6592-1.7431 0-2.4023l-10.4922-10.4927-3.3756-4.051-.7696.6394 3.4047 4.0855 10.5254 10.5258c.277.277.277.7109-.0001.9879-.277.277-.7108.2771-.9879 0l-10.5253-10.5257z" color="#000" enable-background="accumulate" font-family="sans-serif" font-weight="400" overflow="visible"/><path style="line-height:normal;text-indent:0;text-align:start;text-decoration-line:none;text-decoration-style:solid;text-decoration-color:#000;text-transform:none;white-space:normal;isolation:auto;mix-blend-mode:normal;solid-color:#000;solid-opacity:1" fill="#3a3640" fill-rule="evenodd" d="M4052.1369 1801.0596l-1.6952 1.6953.707.707 1.6952-1.6933zM4058.7471 1811.4003l.7072.7072 1.695-1.6952-.7072-.7072zM4043.6967 1794.3151c-.4113.4114-.6983.9467-.8039 1.5456l-.01.037c-.1617.9162.2189 1.847.976 2.3878l2.92 2.0858.2993-.2993 2.6724-2.6725-2.0857-2.9201c-.5408-.7571-1.4715-1.1378-2.3877-.9761l-.037.01c-.5988.1056-1.1341.3925-1.5454.8038zm.7071.7072c.2689-.269.6183-.4576 1.0118-.527l.038-.01c.5391-.095 1.0816.1254 1.3997.5708l1.5931 2.2315-1.7745 1.7746-2.2314-1.5932c-.4454-.3182-.6658-.8607-.5707-1.3998l.01-.038c.069-.3935.258-.7429.527-1.0118z" color="#000" enable-background="accumulate" font-family="sans-serif" font-weight="400" overflow="visible"/><path style="line-height:normal;text-indent:0;text-align:start;text-decoration-line:none;text-decoration-style:solid;text-decoration-color:#000;text-transform:none;white-space:normal;isolation:auto;mix-blend-mode:normal;solid-color:#000;solid-opacity:1" fill="#3a3640" fill-rule="evenodd" d="m 4045.3613,1795.9533 -0.6585,0.7507 2.7122,2.3732 0.6584,-0.7507 z" color="#000" enable-background="accumulate" font-family="sans-serif" font-weight="400" overflow="visible"/></g></svg>