<svg xmlns="http://www.w3.org/2000/svg" width="32" height="32" viewBox="0 0 32 32"><g transform="translate(4776.25 702.138)"><path fill="#586597" d="m -4755.75,-700.38835 a 0.50005,0.50005 0 0 0 -0.5,0.5 v 1 h -16 c -0.8224,0 -1.5,0.6777 -1.5,1.5 v 8 c 0,0.8224 0.6776,1.5 1.5,1.5 h 0.5 v 2 a 0.50004997,0.50004997 0 0 0 0.5,0.5 h 2.5 a 0.50004997,0.50004997 0 0 0 0.5,-0.5 v -2 h 1.5 a 0.50005,0.50005 0 0 0 0.4472,-0.2754 l 0.8614,-1.7246 h 8.6914 c 0.2834,0 0.4928,0.2138 0.4961,0.4961 l -1.4356,11.0039 h -15.5605 c -0.8224,0 -1.5,0.6777 -1.5,1.5 v 4 c 0,0.8224 0.6776,1.5 1.5,1.5 h 24.5 c 0.8223,0 1.5,-0.6776 1.5,-1.5 v -24.5 c 0,-0.8223 -0.6777,-1.5 -1.5,-1.5 h -3.5 v -1 a 0.50005,0.50005 0 0 0 -0.5,-0.5 z" color="#000" font-family="sans-serif" font-weight="400" overflow="visible" style="line-height:normal;font-variant-ligatures:normal;font-variant-position:normal;font-variant-caps:normal;font-variant-numeric:normal;font-variant-alternates:normal;font-feature-settings:normal;text-indent:0;text-align:start;text-decoration-line:none;text-decoration-style:solid;text-decoration-color:#000;text-transform:none;text-orientation:mixed;shape-padding:0;isolation:auto;mix-blend-mode:normal"/><path fill="#ffd7dd" d="m -4755.3106,-688.88835 h 7.0606 v 16 c 0,0.2857 -0.2144,0.5 -0.5,0.5 h -24.5 c -0.2857,0 -0.5,-0.2143 -0.5,-0.5 v -4 c 0,-0.2856 0.2143,-0.5 0.5,-0.5 h 16 a 0.50005,0.50005 0 0 0 0.4961,-0.4336 z" color="#000" font-family="sans-serif" font-weight="400" overflow="visible" style="line-height:normal;font-variant-ligatures:normal;font-variant-position:normal;font-variant-caps:normal;font-variant-numeric:normal;font-variant-alternates:normal;font-feature-settings:normal;text-indent:0;text-align:start;text-decoration-line:none;text-decoration-style:solid;text-decoration-color:#000;text-transform:none;text-orientation:mixed;shape-padding:0;isolation:auto;mix-blend-mode:normal"/><path fill="#ffbfbf" style="line-height:normal;font-variant-ligatures:normal;font-variant-position:normal;font-variant-caps:normal;font-variant-numeric:normal;font-variant-alternates:normal;font-feature-settings:normal;text-indent:0;text-align:start;text-decoration-line:none;text-decoration-style:solid;text-decoration-color:#000;text-transform:none;text-orientation:mixed;shape-padding:0;isolation:auto;mix-blend-mode:normal" d="m -4773.75,-673.88835 v 1 c 0,0.2857 0.2143,0.5 0.5,0.5 h 24.5 c 0.2856,0 0.5,-0.2143 0.5,-0.5 v -1 z" color="#000" font-family="sans-serif" font-weight="400" overflow="visible"/><path fill="#91a6b8" d="m -4755.25,-699.38835 h 2 v 0.5 h -2 z" color="#000" font-family="sans-serif" font-weight="400" overflow="visible" style="line-height:normal;font-variant-ligatures:normal;font-variant-position:normal;font-variant-caps:normal;font-variant-numeric:normal;font-variant-alternates:normal;font-feature-settings:normal;text-indent:0;text-align:start;text-decoration-line:none;text-decoration-style:solid;text-decoration-color:#000;text-transform:none;text-orientation:mixed;shape-padding:0;isolation:auto;mix-blend-mode:normal"/><path fill="#ff9395" d="m -4772.25,-697.88835 h 23.5 c 0.2856,0 0.5,0.2144 0.5,0.5 v 7.5 h -7.0918 c -0.2085,-0.579 -0.7615,-1 -1.4082,-1 h -9 a 0.50005,0.50005 0 0 0 -0.4473,0.2773 l -0.8613,1.7227 h -5.1914 c -0.2857,0 -0.5,-0.2143 -0.5,-0.5 v -8 c 0,-0.2856 0.2143,-0.5 0.5,-0.5 z" color="#000" font-family="sans-serif" font-weight="400" overflow="visible" style="line-height:normal;font-variant-ligatures:normal;font-variant-position:normal;font-variant-caps:normal;font-variant-numeric:normal;font-variant-alternates:normal;font-feature-settings:normal;text-indent:0;text-align:start;text-decoration-line:none;text-decoration-style:solid;text-decoration-color:#000;text-transform:none;text-orientation:mixed;shape-padding:0;isolation:auto;mix-blend-mode:normal"/><path fill="#91a6b8" d="m -4770.75,-687.88835 h 1.5 v 1.5 h -1.5 z" color="#000" font-family="sans-serif" font-weight="400" overflow="visible" style="line-height:normal;font-variant-ligatures:normal;font-variant-position:normal;font-variant-caps:normal;font-variant-numeric:normal;font-variant-alternates:normal;font-feature-settings:normal;text-indent:0;text-align:start;text-decoration-line:none;text-decoration-style:solid;text-decoration-color:#000;text-transform:none;text-orientation:mixed;shape-padding:0;isolation:auto;mix-blend-mode:normal"/><path fill="#586597" style="line-height:normal;font-variant-ligatures:normal;font-variant-position:normal;font-variant-caps:normal;font-variant-numeric:normal;font-variant-alternates:normal;font-feature-settings:normal;text-indent:0;text-align:start;text-decoration-line:none;text-decoration-style:solid;text-decoration-color:#000;text-transform:none;text-orientation:mixed;shape-padding:0;isolation:auto;mix-blend-mode:normal" d="M-4770.0059-686.14505a.50004994.50004994 0 0 0-.4941.5078v4.75a.50004994.50004994 0 1 0 1 0v-4.75a.50004994.50004994 0 0 0-.5059-.5078zM-4754.2492-684.88875c0 1.3748 1.1252 2.5 2.5 2.5 1.3748 0 2.5-1.1252 2.5-2.5 0-1.3748-1.1252-2.5-2.5-2.5-1.3748 0-2.5 1.1252-2.5 2.5z" color="#000" font-family="sans-serif" font-weight="400" overflow="visible"/><path fill="#ffe4d8" d="m -4753.2492,-684.88875 c 0,-0.8343 0.6657,-1.5 1.5,-1.5 0.8343,0 1.5,0.6657 1.5,1.5 0,0.8344 -0.6657,1.5 -1.5,1.5 -0.8343,0 -1.5,-0.6656 -1.5,-1.5 z" color="#000" font-family="sans-serif" font-weight="400" overflow="visible" style="line-height:normal;font-variant-ligatures:normal;font-variant-position:normal;font-variant-caps:normal;font-variant-numeric:normal;font-variant-alternates:normal;font-feature-settings:normal;text-indent:0;text-align:start;text-decoration-line:none;text-decoration-style:solid;text-decoration-color:#000;text-transform:none;text-orientation:mixed;shape-padding:0;isolation:auto;mix-blend-mode:normal"/><path fill="#586597" style="line-height:normal;font-variant-ligatures:normal;font-variant-position:normal;font-variant-caps:normal;font-variant-numeric:normal;font-variant-alternates:normal;font-feature-settings:normal;text-indent:0;text-align:start;text-decoration-line:none;text-decoration-style:solid;text-decoration-color:#000;text-transform:none;text-orientation:mixed;shape-padding:0;isolation:auto;mix-blend-mode:normal" d="m -4751.25,-685.38725 v 1 h 1.5 v -1 z" color="#000" font-family="sans-serif" font-weight="400" overflow="visible"/><path fill="#ffbfbf" style="line-height:normal;font-variant-ligatures:normal;font-variant-position:normal;font-variant-caps:normal;font-variant-numeric:normal;font-variant-alternates:normal;font-feature-settings:normal;text-indent:0;text-align:start;text-decoration-line:none;text-decoration-style:solid;text-decoration-color:#000;text-transform:none;text-orientation:mixed;shape-padding:0;isolation:auto;mix-blend-mode:normal" d="M-4754.25-681.38725v1h1v-1zM-4752.25-681.38725v1h1v-1zM-4750.25-681.38725v1h1v-1zM-4754.25-679.38725v1h1v-1zM-4752.25-679.38725v1h1v-1zM-4750.25-679.38725v1h1v-1z" color="#000" font-family="sans-serif" font-weight="400" overflow="visible"/><path fill="#586597" style="line-height:normal;font-variant-ligatures:normal;font-variant-position:normal;font-variant-caps:normal;font-variant-numeric:normal;font-variant-alternates:normal;font-feature-settings:normal;text-indent:0;text-align:start;text-decoration-line:none;text-decoration-style:solid;text-decoration-color:#000;text-transform:none;text-orientation:mixed;shape-padding:0;isolation:auto;mix-blend-mode:normal" d="M-4774.25-674.38725v1h20v-1zM-4753.25-674.38725v1h1v-1zM-4751.25-674.38725v1h3.5v-1zM-4746.2559-694.38725a.50005.50005 0 0 0-.4941.5059v2.9863a.50005.50005 0 1 0 1 0v-2.9863a.50005.50005 0 0 0-.5059-.5059zM-4770.75-700.38725v2h1v-2z" color="#000" font-family="sans-serif" font-weight="400" overflow="visible"/><path fill="#586597" style="line-height:normal;font-variant-ligatures:normal;font-variant-position:normal;font-variant-caps:normal;font-variant-numeric:normal;font-variant-alternates:normal;font-feature-settings:normal;text-indent:0;text-align:start;text-decoration-line:none;text-decoration-style:solid;text-decoration-color:#000;text-transform:none;text-orientation:mixed;shape-padding:0;isolation:auto;mix-blend-mode:normal" d="m -4771.75,-700.88725 v 1 h 3 v -1 z" color="#000" font-family="sans-serif" font-weight="400" overflow="visible"/><path fill="#ff7295" d="m -4771.9063,-696.9503 v 1 h 1 v -1 z" color="#000" font-family="sans-serif" font-weight="400" overflow="visible" style="line-height:normal;font-variant-ligatures:normal;font-variant-position:normal;font-variant-caps:normal;font-variant-numeric:normal;font-variant-alternates:normal;font-feature-settings:normal;text-indent:0;text-align:start;text-decoration-line:none;text-decoration-style:solid;text-decoration-color:#000;text-transform:none;text-orientation:mixed;shape-padding:0;isolation:auto;mix-blend-mode:normal"/></g></svg>