<svg xmlns="http://www.w3.org/2000/svg" width="32" height="32" viewBox="0 0 8.467 8.467"><g transform="matrix(.26458 0 0 .26458 -410.717 -307.4)"><path fill="#8be1fc" d="m 1579.1756,1177.8276 a 12.375,12.375 0 0 1 -12.375,12.375 12.375,12.375 0 0 1 -12.375,-12.375 12.375,12.375 0 0 1 12.375,-12.375 12.375,12.375 0 0 1 12.375,12.375 z"/><g stroke="#3a3640" transform="translate(2160.259 106.797)"><path fill="none" stroke-linejoin="round" d="m 577.44141,1061.1956 29,0 0,21 -29,0 z" transform="scale(-1 1)"/><path style="line-height:normal;text-indent:0;text-align:start;text-decoration-line:none;text-decoration-style:solid;text-decoration-color:#000;text-transform:none;white-space:normal;isolation:auto;mix-blend-mode:normal;solid-color:#000;solid-opacity:1" fill="#3a3640" fill-rule="evenodd" stroke="none" d="M-589.43551 1071.6956a.50005.50005 0 00-.50586.5078l0 2.4922 1 0 0-2.4922a.50005.50005 0 00-.49219-.5078.50005.50005 0 01-.002 0zM-589.94137 1075.6956l0 4.4922a.50005.50005 0 101 0l0-4.4922z" color="#000" enable-background="accumulate" font-family="sans-serif" font-weight="400" overflow="visible"/><path fill="none" d="m -587.94138,1074.1956 -3,0"/><path style="line-height:normal;text-indent:0;text-align:start;text-decoration-line:none;text-decoration-style:solid;text-decoration-color:#000;text-transform:none;white-space:normal;isolation:auto;mix-blend-mode:normal;solid-color:#000;solid-opacity:1" fill="#3a3640" fill-rule="evenodd" stroke="none" d="M-585.43551 1071.6956a.50005.50005 0 00-.50586.5078l0 4.4922 1 0 0-4.4922a.50005.50005 0 00-.49219-.5078.50005.50005 0 01-.002 0zM-585.94137 1077.6956l0 2.4922a.50005.50005 0 101 0l0-2.4922z" color="#000" enable-background="accumulate" font-family="sans-serif" font-weight="400" overflow="visible"/><path fill="none" d="m -583.94139,1076.1956 -3,0"/><path style="line-height:normal;text-indent:0;text-align:start;text-decoration-line:none;text-decoration-style:solid;text-decoration-color:#000;text-transform:none;white-space:normal;isolation:auto;mix-blend-mode:normal;solid-color:#000;solid-opacity:1" fill="#3a3640" fill-rule="evenodd" stroke="none" d="M-581.43551 1071.7034a.50005.50005 0 00-.50586.5078l0 5.4844 1 0 0-5.4844a.50005.50005 0 00-.49219-.5078.50005.50005 0 01-.002 0zM-581.94137 1078.6956l0 1.5a.50005.50005 0 101 0l0-1.5z" color="#000" enable-background="accumulate" font-family="sans-serif" font-weight="400" overflow="visible"/><path fill="none" d="m -579.94138,1077.1955 -3,0"/><path style="line-height:normal;text-indent:0;text-align:start;text-decoration-line:none;text-decoration-style:solid;text-decoration-color:#000;text-transform:none;white-space:normal;isolation:auto;mix-blend-mode:normal;solid-color:#000;solid-opacity:1" fill="#3a3640" fill-rule="evenodd" stroke="none" d="M-602.43551 1071.7034a.50005.50005 0 00-.50586.5078l0 5.4844 1 0 0-5.4844a.50005.50005 0 00-.49219-.5078.50005.50005 0 01-.002 0zM-602.94137 1078.6956l0 1.5a.50005.50005 0 101 0l0-1.5z" color="#000" enable-background="accumulate" font-family="sans-serif" font-weight="400" overflow="visible"/><path fill="none" d="m -603.94139,1077.1955 3,0"/><path style="line-height:normal;text-indent:0;text-align:start;text-decoration-line:none;text-decoration-style:solid;text-decoration-color:#000;text-transform:none;white-space:normal;isolation:auto;mix-blend-mode:normal;solid-color:#000;solid-opacity:1" fill="#3a3640" fill-rule="evenodd" stroke="none" d="M-594.43551 1071.6956a.50005.50005 0 00-.50586.5078l0 2.4922 1 0 0-2.4922a.50005.50005 0 00-.49219-.5078.50005.50005 0 01-.002 0zM-594.94137 1075.6956l0 4.4922a.50005.50005 0 101 0l0-4.4922z" color="#000" enable-background="accumulate" font-family="sans-serif" font-weight="400" overflow="visible"/><path fill="none" d="m -595.94138,1074.1956 2.99999,0"/><path style="line-height:normal;text-indent:0;text-align:start;text-decoration-line:none;text-decoration-style:solid;text-decoration-color:#000;text-transform:none;white-space:normal;isolation:auto;mix-blend-mode:normal;solid-color:#000;solid-opacity:1" fill="#3a3640" fill-rule="evenodd" stroke="none" d="M-598.43551 1071.6956a.50005.50005 0 00-.50586.5078l0 4.4922 1 0 0-4.4922a.50005.50005 0 00-.49219-.5078.50005.50005 0 01-.002 0zM-598.94137 1077.6956l0 2.4922a.50005.50005 0 101 0l0-2.4922z" color="#000" enable-background="accumulate" font-family="sans-serif" font-weight="400" overflow="visible"/><path fill="none" d="m -599.94139,1076.1956 3,0"/><path fill="none" stroke-linecap="round" stroke-linejoin="round" d="m 596.44141,1065.1956 7,0 0,2 -7,0 z" transform="scale(-1 1)"/><path fill="#3a3640" stroke="none" d="M-582.94139 1062.6956l-1 0 0 1 1 0zM-584.94139 1062.6956l-1 0 0 1 1 0zM-586.94139 1062.6956l-1 0 0 1 1 0zM-582.94139 1064.6956l-1 0 0 1 1 0zM-584.94139 1064.6956l-1 0 0 1 1 0zM-586.94139 1064.6956l-1 0 0 1 1 0zM-580.94139 1066.6956l-1 0 0 1 1 0zM-582.94139 1066.6956l-1 0 0 1 1 0zM-586.94139 1066.6956l-1 0 0 1 1 0zM-580.94139 1068.6956l-1 0 0 1 1 0zM-582.94139 1068.6956l-1 0 0 1 1 0zM-584.94139 1068.6956l-1 0 0 1 1 0zM-586.94139 1068.6956l-1 0 0 1 1 0zM-588.94139 1062.6956l-1 0 0 1 1 0z"/><path fill="#3a3640" stroke="none" d="m 588.94141,1064.6956 1,0 0,1 -1,0 z" transform="scale(-1 1)"/><path fill="#3a3640" stroke="none" d="M-588.94139 1066.6956l-1 0 0 1 1 0zM-588.94139 1068.6956l-1 0 0 1 1 0zM-592.44139 1064.6956c-.277 0-.5.223-.5.5 0 .277.223.5.5.5.277 0 .5-.223.5-.5 0-.277-.223-.5-.5-.5zM-592.44139 1066.6956c-.277 0-.5.223-.5.5 0 .277.223.5.5.5.277 0 .5-.223.5-.5 0-.277-.223-.5-.5-.5zM-594.44139 1064.6956c-.277 0-.5.223-.5.5 0 .277.223.5.5.5.277 0 .5-.223.5-.5 0-.277-.223-.5-.5-.5zM-594.44139 1066.6956c-.277 0-.5.223-.5.5 0 .277.223.5.5.5.277 0 .5-.223.5-.5 0-.277-.223-.5-.5-.5zM-596.94139 1068.6956c-.277 0-.5.223-.5.5 0 .277.223.5.5.5.277 0 .5-.223.5-.5 0-.277-.223-.5-.5-.5zM-598.94139 1068.6956c-.277 0-.5.223-.5.5 0 .277.223.5.5.5.277 0 .5-.223.5-.5 0-.277-.223-.5-.5-.5zM-600.94139 1068.6956c-.277 0-.5.223-.5.5 0 .277.223.5.5.5.277 0 .5-.223.5-.5 0-.277-.223-.5-.5-.5zM-602.94139 1068.6956c-.277 0-.5.223-.5.5 0 .277.223.5.5.5.277 0 .5-.223.5-.5 0-.277-.223-.5-.5-.5z"/></g></g></svg>