<svg xmlns="http://www.w3.org/2000/svg" viewBox="0 0 24 24"><path fill="#303C42" d="M18.5 19h-2.17C19.68 17.382 22 13.962 22 10c0-5.514-4.486-10-10-10S2 4.486 2 10s4.486 10 10 10h6.5c.827 0 1.5.673 1.5 1.5s-.673 1.5-1.5 1.5h-4a.5.5 0 0 1-.5-.5c0-.827-.673-1.5-1.5-1.5h-6a.5.5 0 1 0 0 1h6a.5.5 0 0 1 .5.5c0 .827.673 1.5 1.5 1.5h4c1.378 0 2.5-1.122 2.5-2.5S19.878 19 18.5 19z"/><path fill="#D7CCC8" d="M13.921 18.789a18.484 18.484 0 0 1-10.71-10.71c.122-.556.291-1.093.51-1.606A17.53 17.53 0 0 0 15.527 18.28c-.512.219-1.05.388-1.606.51z"/><path fill="#D7CCC8" d="M18.789 15.89c-6.626-.784-11.896-6.053-12.68-12.679.3-.26.612-.502.943-.72.492 6.618 5.84 11.966 12.458 12.457a9.042 9.042 0 0 1-.721.942z"/><path fill="#D7CCC8" d="M20.695 7.715A17.526 17.526 0 008.405 4.58a12.27 12.27 0 01-.213-.991c4.143-.52 8.344.358 11.91 2.518.247.511.446 1.049.593 1.608zM20.06 13.98a12.302 12.302 0 01-2.959-.47c.134-.658.227-1.324.285-1.995a12.395 12.395 0 012.705 2.4l-.031.065zM12.452 9.605c.014.464.002.926-.034 1.389a12.728 12.728 0 01-1.523-1.534c.524.017 1.043.064 1.557.145zM13.452 9.809c.338.082.675.166 1.004.276a14.604 14.604 0 01-.19 2.217c-.313-.183-.62-.376-.916-.585.08-.632.111-1.27.102-1.908zM15.441 10.461c.34.145.666.313.991.487a16.709 16.709 0 01-.288 2.244c-.32-.12-.634-.253-.942-.4.14-.77.216-1.548.24-2.331z"/><path fill="#D7CCC8" d="M10.14 8.454c-.21-.312-.409-.633-.591-.963 4.188-.273 8.337 1.278 11.277 4.258a8.886 8.886 0 0 1-.312 1.144 13.5 13.5 0 0 0-10.374-4.44z"/><path fill="#D7CCC8" d="M9.07 6.519c-.139-.314-.26-.637-.375-.963 4.413-.483 8.836.804 12.263 3.606.025.276.042.555.042.838 0 .176-.016.348-.026.522A15.576 15.576 0 009.07 6.519zM13.64 2.699a15.352 15.352 0 00-1.043-1.669c.457.03.906.09 1.342.186.347.552.653 1.13.933 1.72-.408-.093-.818-.17-1.232-.237zM12.387 2.53c-.41-.04-.82-.07-1.23-.084-.298-.44-.626-.858-.974-1.261a9.006 9.006 0 011.178-.153c.375.476.713.978 1.026 1.497zM9.93 2.455c-.623.018-1.247.065-1.87.143-.02-.217-.033-.437-.04-.658a8.948 8.948 0 011.093-.456c.29.31.562.634.818.97zM19.024 4.388a19.486 19.486 0 00-2.91-1.138 17.405 17.405 0 00-.767-1.598 9.036 9.036 0 013.677 2.736zM5.228 4.092c1.095 6.469 6.21 11.585 12.68 12.68a9.042 9.042 0 01-1.079.81A16.516 16.516 0 014.418 5.172c.243-.381.514-.742.81-1.08zM3.006 10.11a19.48 19.48 0 008.883 8.884c-4.874-.06-8.824-4.01-8.883-8.884z"/><path d="M3.654 13.333c1.314 3.28 4.5 5.616 8.235 5.661a19.469 19.469 0 0 1-4.457-3.042 9.005 9.005 0 0 1-3.778-2.619zm17.04-5.618a8.922 8.922 0 0 0-.592-1.608c-.257-.156-.524-.29-.788-.433.084.407.13.825.157 1.25.416.248.827.508 1.224.791zM10.5 16.5c-.284 0-.564-.017-.842-.042a18.475 18.475 0 0 0 4.263 2.33 8.924 8.924 0 0 0 1.606-.51 17.435 17.435 0 0 1-4.107-1.824c-.303.03-.61.046-.92.046zm2.45-.346a16.422 16.422 0 0 0 3.88 1.428c.38-.243.74-.514 1.078-.81a15.358 15.358 0 0 1-3.648-1.103c-.42.194-.858.357-1.31.485zm5.733-4.923a13.472 13.472 0 0 1 1.831 1.662c.127-.372.235-.752.312-1.144a14.158 14.158 0 0 0-1.761-1.488 8.907 8.907 0 0 1-.382.97zm2.275-2.07A16.28 16.28 0 0 0 19.47 8.09a9.026 9.026 0 0 1-.14 1.144c.571.396 1.127.816 1.644 1.289.01-.174.026-.346.026-.522a9.04 9.04 0 0 0-.042-.838zm-2.756 2.977c-.3.497-.645.96-1.031 1.388.926.26 1.892.42 2.889.454l.03-.064c-.561-.672-1.208-1.248-1.888-1.778zm-2.817 2.914c1.08.409 2.22.698 3.404.838.26-.298.502-.611.72-.942a13.28 13.28 0 0 1-3.142-.633c-.31.267-.637.514-.982.737z" opacity=".1"/><linearGradient id="a" x1="2.251" x2="23.323" y1="7.246" y2="17.072" gradientUnits="userSpaceOnUse"><stop offset="0" stop-color="#FFF" stop-opacity=".2"/><stop offset="1" stop-color="#FFF" stop-opacity="0"/></linearGradient><path fill="url(#a)" d="M18.5 19h-2.17C19.68 17.382 22 13.962 22 10c0-5.514-4.486-10-10-10S2 4.486 2 10s4.486 10 10 10h6.5c.827 0 1.5.673 1.5 1.5s-.673 1.5-1.5 1.5h-4a.5.5 0 0 1-.5-.5c0-.827-.673-1.5-1.5-1.5h-6a.5.5 0 1 0 0 1h6a.5.5 0 0 1 .5.5c0 .827.673 1.5 1.5 1.5h4c1.378 0 2.5-1.122 2.5-2.5S19.878 19 18.5 19z"/></svg>